<svg 
 xmlns="http://www.w3.org/2000/svg"
 xmlns:xlink="http://www.w3.org/1999/xlink"
 width="8px" height="8px">
<path fill-rule="evenodd"  fill="rgb(70, 129, 141)"
 d="M4.637,3.680 L7.672,0.646 C7.807,0.510 7.807,0.290 7.672,0.154 C7.536,0.018 7.315,0.018 7.179,0.154 L4.145,3.187 L1.111,0.155 C0.975,0.019 0.754,0.019 0.618,0.155 C0.482,0.290 0.482,0.510 0.618,0.646 L3.653,3.680 L0.619,6.714 C0.483,6.849 0.483,7.069 0.619,7.204 C0.687,7.273 0.776,7.307 0.865,7.307 C0.954,7.307 1.043,7.274 1.111,7.204 L4.145,4.173 L7.179,7.204 C7.248,7.273 7.336,7.307 7.425,7.307 C7.514,7.307 7.603,7.274 7.671,7.204 C7.807,7.069 7.807,6.849 7.671,6.714 L4.637,3.680 Z"/>
</svg>