<svg 
 xmlns="http://www.w3.org/2000/svg"
 xmlns:xlink="http://www.w3.org/1999/xlink"
 width="62px" height="39px">
<defs>
<filter filterUnits="userSpaceOnUse" id="Filter_0" x="0px" y="0px" width="62px" height="39px"  >
    <feOffset in="SourceAlpha" dx="0" dy="2" />
    <feGaussianBlur result="blurOut" stdDeviation="0" />
    <feFlood flood-color="rgb(107, 202, 236)" result="floodOut" />
    <feComposite operator="atop" in="floodOut" in2="blurOut" />
    <feComponentTransfer><feFuncA type="linear" slope="0.4"/></feComponentTransfer>
    <feMerge>
    <feMergeNode/>
    <feMergeNode in="SourceGraphic"/>
  </feMerge>
</filter>

</defs>
<g filter="url(#Filter_0)">
<path fill-rule="evenodd"  fill="rgb(255, 255, 255)"
 d="M60.496,15.656 C59.928,17.194 59.085,18.545 57.967,19.703 C56.849,20.863 55.447,21.779 53.762,22.454 C52.076,23.128 50.115,23.465 47.879,23.465 L42.564,23.465 L41.016,36.490 L31.109,36.490 L35.495,0.685 L49.840,0.685 C51.938,0.685 53.718,0.936 55.181,1.437 C56.643,1.939 57.830,2.630 58.742,3.512 C59.653,4.395 60.315,5.450 60.728,6.677 C61.141,7.907 61.347,9.265 61.347,10.752 C61.347,12.482 61.064,14.116 60.496,15.656 ZM50.279,8.520 C49.573,7.932 48.653,7.638 47.518,7.638 L44.525,7.638 L43.390,16.719 L46.641,16.719 C47.879,16.719 48.971,16.296 49.918,15.448 C50.863,14.600 51.337,13.262 51.337,11.426 C51.337,10.077 50.983,9.109 50.279,8.520 ZM23.421,18.380 C24.763,19.140 25.828,20.162 26.620,21.442 C27.411,22.722 27.807,24.227 27.807,25.956 C27.807,27.409 27.480,28.793 26.827,30.108 C26.173,31.423 25.218,32.590 23.963,33.611 C22.706,34.632 21.141,35.436 19.267,36.023 C17.392,36.612 15.233,36.906 12.791,36.906 C10.795,36.906 9.015,36.672 7.450,36.205 C5.884,35.738 4.568,35.090 3.502,34.260 C2.436,33.429 1.627,32.434 1.077,31.275 C0.527,30.117 0.252,28.846 0.252,27.461 C0.252,26.701 0.355,25.870 0.561,24.971 C0.768,24.070 1.120,23.180 1.619,22.299 C2.117,21.416 2.797,20.552 3.657,19.703 C4.517,18.855 5.600,18.104 6.908,17.446 C5.910,16.719 5.145,15.898 4.612,14.981 C4.078,14.064 3.812,13.001 3.812,11.790 C3.812,10.267 4.164,8.858 4.870,7.560 C5.575,6.262 6.547,5.140 7.785,4.187 C9.024,3.236 10.477,2.493 12.146,1.956 C13.814,1.420 15.594,1.151 17.487,1.151 C18.828,1.151 20.178,1.325 21.537,1.670 C22.896,2.017 24.109,2.544 25.175,3.253 C26.241,3.964 27.110,4.871 27.781,5.978 C28.452,7.085 28.787,8.400 28.787,9.922 C28.787,11.340 28.417,12.776 27.678,14.228 C26.938,15.681 25.519,17.066 23.421,18.380 ZM10.340,23.803 C9.806,24.789 9.540,25.732 9.540,26.631 C9.540,27.531 9.883,28.310 10.572,28.965 C11.260,29.623 12.275,29.953 13.617,29.953 C14.545,29.953 15.336,29.814 15.990,29.538 C16.643,29.260 17.159,28.913 17.538,28.499 C17.916,28.083 18.191,27.625 18.364,27.124 C18.536,26.622 18.622,26.147 18.622,25.696 C18.622,24.728 18.217,23.881 17.409,23.155 C16.600,22.427 15.164,21.667 13.100,20.870 C11.793,21.839 10.873,22.817 10.340,23.803 ZM19.499,8.599 C18.948,7.993 18.003,7.690 16.661,7.690 C15.904,7.690 15.259,7.819 14.726,8.079 C14.192,8.339 13.754,8.659 13.410,9.039 C13.066,9.420 12.817,9.818 12.662,10.233 C12.507,10.649 12.430,11.011 12.430,11.323 C12.430,11.806 12.559,12.231 12.817,12.594 C13.075,12.957 13.418,13.286 13.849,13.580 C14.278,13.874 14.786,14.160 15.371,14.436 C15.955,14.714 16.575,15.025 17.229,15.369 C18.432,14.436 19.249,13.572 19.680,12.776 C20.109,11.980 20.325,11.288 20.325,10.701 C20.325,9.905 20.049,9.204 19.499,8.599 Z"/>
</g>
</svg>