<svg 
 xmlns="http://www.w3.org/2000/svg"
 xmlns:xlink="http://www.w3.org/1999/xlink"
 width="134px" height="12px">
<path fill-rule="evenodd"  fill="rgb(255, 255, 255)"
 d="M130.404,1.330 C129.700,1.330 129.150,1.481 128.754,1.783 C128.357,2.085 128.159,2.504 128.159,3.041 C128.159,3.437 128.232,3.761 128.378,4.013 C128.524,4.266 128.771,4.498 129.118,4.709 C129.464,4.920 129.995,5.153 130.709,5.408 C131.908,5.835 132.734,6.293 133.185,6.783 C133.636,7.272 133.861,7.908 133.861,8.689 C133.861,9.694 133.496,10.478 132.766,11.041 C132.036,11.603 131.045,11.884 129.794,11.884 C128.438,11.884 127.395,11.710 126.665,11.361 L126.665,10.080 C127.135,10.278 127.646,10.434 128.198,10.548 C128.751,10.663 129.299,10.720 129.841,10.720 C130.727,10.720 131.395,10.552 131.843,10.216 C132.292,9.881 132.516,9.413 132.516,8.814 C132.516,8.418 132.436,8.094 132.277,7.841 C132.118,7.589 131.852,7.356 131.480,7.142 C131.107,6.929 130.540,6.687 129.778,6.416 C128.715,6.036 127.955,5.585 127.498,5.064 C127.042,4.543 126.814,3.864 126.814,3.025 C126.814,2.145 127.145,1.444 127.807,0.924 C128.470,0.403 129.346,0.142 130.435,0.142 C131.572,0.142 132.618,0.351 133.572,0.767 L133.157,1.923 C132.213,1.528 131.296,1.330 130.404,1.330 ZM122.066,11.728 L120.737,11.728 L120.737,1.486 L117.116,1.486 L117.116,0.306 L125.688,0.306 L125.688,1.486 L122.066,1.486 L122.066,11.728 ZM107.636,2.142 L107.573,2.142 C107.657,3.267 107.699,4.298 107.699,5.236 L107.699,11.728 L106.471,11.728 L106.471,0.306 L107.972,0.306 L114.206,9.853 L114.269,9.853 C114.258,9.713 114.235,9.261 114.198,8.498 C114.162,7.735 114.149,7.189 114.159,6.861 L114.159,0.306 L115.403,0.306 L115.403,11.728 L113.885,11.728 L107.636,2.142 ZM97.562,0.306 L103.936,0.306 L103.936,1.486 L98.892,1.486 L98.892,5.166 L103.631,5.166 L103.631,6.338 L98.892,6.338 L98.892,10.541 L103.936,10.541 L103.936,11.728 L97.562,11.728 L97.562,0.306 ZM90.554,11.728 L86.456,0.306 L87.863,0.306 L90.491,7.697 C90.794,8.546 91.034,9.371 91.211,10.173 C91.399,9.330 91.644,8.489 91.946,7.650 L94.559,0.306 L95.990,0.306 L91.868,11.728 L90.554,11.728 ZM79.119,0.306 L85.494,0.306 L85.494,1.486 L80.449,1.486 L80.449,5.166 L85.189,5.166 L85.189,6.338 L80.449,6.338 L80.449,10.541 L85.494,10.541 L85.494,11.728 L79.119,11.728 L79.119,0.306 ZM67.876,4.709 C68.223,4.920 68.753,5.153 69.467,5.408 C70.667,5.835 71.492,6.293 71.943,6.783 C72.394,7.272 72.620,7.908 72.620,8.689 C72.620,9.694 72.254,10.478 71.525,11.041 C70.794,11.603 69.804,11.884 68.552,11.884 C67.197,11.884 66.154,11.710 65.424,11.361 L65.424,10.080 C65.893,10.278 66.404,10.434 66.957,10.548 C67.509,10.663 68.057,10.720 68.599,10.720 C69.486,10.720 70.153,10.552 70.602,10.216 C71.050,9.881 71.274,9.413 71.274,8.814 C71.274,8.418 71.195,8.094 71.036,7.841 C70.877,7.589 70.611,7.356 70.238,7.142 C69.865,6.929 69.298,6.687 68.537,6.416 C67.473,6.036 66.713,5.585 66.257,5.064 C65.800,4.543 65.572,3.864 65.572,3.025 C65.572,2.145 65.903,1.444 66.566,0.924 C67.228,0.403 68.104,0.142 69.194,0.142 C70.330,0.142 71.376,0.351 72.330,0.767 L71.916,1.923 C70.972,1.528 70.054,1.330 69.162,1.330 C68.459,1.330 67.908,1.481 67.512,1.783 C67.116,2.085 66.918,2.504 66.918,3.041 C66.918,3.437 66.991,3.761 67.137,4.013 C67.283,4.266 67.529,4.498 67.876,4.709 ZM58.713,11.884 C57.336,11.884 56.271,11.509 55.518,10.759 C54.764,10.009 54.388,8.978 54.388,7.666 L54.388,0.306 L55.717,0.306 L55.717,7.759 C55.717,8.713 55.978,9.444 56.500,9.955 C57.021,10.465 57.787,10.720 58.799,10.720 C59.764,10.720 60.507,10.464 61.028,9.951 C61.550,9.438 61.810,8.702 61.810,7.744 L61.810,0.306 L63.140,0.306 L63.140,7.697 C63.140,8.999 62.746,10.022 61.959,10.767 C61.172,11.512 60.090,11.884 58.713,11.884 ZM47.536,7.236 L46.191,7.236 L46.191,11.728 L44.861,11.728 L44.861,0.306 L47.826,0.306 C50.683,0.306 52.112,1.416 52.112,3.634 C52.112,4.791 51.717,5.680 50.927,6.302 C50.137,6.925 49.007,7.236 47.536,7.236 ZM49.992,2.009 C49.497,1.640 48.725,1.455 47.677,1.455 L46.191,1.455 L46.191,6.095 L47.388,6.095 C48.566,6.095 49.418,5.905 49.945,5.525 C50.472,5.145 50.735,4.536 50.735,3.697 C50.735,2.942 50.487,2.379 49.992,2.009 ZM37.063,11.884 C35.379,11.884 34.079,11.370 33.164,10.341 C32.249,9.313 31.792,7.861 31.792,5.986 C31.792,4.127 32.250,2.685 33.168,1.662 C34.086,0.638 35.390,0.127 37.079,0.127 C38.721,0.127 40.004,0.648 40.927,1.689 C41.850,2.731 42.312,4.168 42.312,6.002 C42.312,7.830 41.849,9.267 40.923,10.314 C39.998,11.361 38.711,11.884 37.063,11.884 ZM39.938,2.506 C39.294,1.711 38.341,1.314 37.079,1.314 C35.812,1.314 34.849,1.714 34.189,2.513 C33.529,3.313 33.200,4.476 33.200,6.002 C33.200,7.548 33.529,8.722 34.189,9.521 C34.849,10.321 35.807,10.720 37.063,10.720 C38.330,10.720 39.287,10.322 39.934,9.525 C40.580,8.728 40.904,7.554 40.904,6.002 C40.904,4.465 40.582,3.300 39.938,2.506 ZM27.044,11.728 L25.714,11.728 L25.714,1.486 L22.093,1.486 L22.093,0.306 L30.665,0.306 L30.665,1.486 L27.044,1.486 L27.044,11.728 ZM18.315,1.330 C17.059,1.330 16.067,1.748 15.339,2.584 C14.612,3.420 14.248,4.564 14.248,6.017 C14.248,7.512 14.599,8.667 15.300,9.482 C16.001,10.297 17.001,10.705 18.300,10.705 C19.098,10.705 20.007,10.562 21.029,10.275 L21.029,11.439 C20.237,11.736 19.259,11.884 18.096,11.884 C16.412,11.884 15.113,11.374 14.197,10.353 C13.282,9.332 12.825,7.882 12.825,6.002 C12.825,4.825 13.045,3.793 13.486,2.908 C13.926,2.022 14.562,1.340 15.394,0.861 C16.226,0.382 17.205,0.142 18.331,0.142 C19.530,0.142 20.578,0.361 21.475,0.799 L20.912,1.939 C20.047,1.533 19.181,1.330 18.315,1.330 ZM5.621,11.884 C3.937,11.884 2.637,11.370 1.722,10.341 C0.807,9.313 0.350,7.861 0.350,5.986 C0.350,4.127 0.808,2.685 1.726,1.662 C2.644,0.638 3.947,0.127 5.637,0.127 C7.279,0.127 8.562,0.648 9.485,1.689 C10.408,2.731 10.869,4.168 10.869,6.002 C10.869,7.830 10.407,9.267 9.481,10.314 C8.556,11.361 7.269,11.884 5.621,11.884 ZM8.496,2.506 C7.852,1.711 6.899,1.314 5.637,1.314 C4.370,1.314 3.406,1.714 2.747,2.513 C2.087,3.313 1.757,4.476 1.757,6.002 C1.757,7.548 2.087,8.722 2.747,9.521 C3.406,10.321 4.365,10.720 5.621,10.720 C6.888,10.720 7.845,10.322 8.492,9.525 C9.138,8.728 9.462,7.554 9.462,6.002 C9.462,4.465 9.140,3.300 8.496,2.506 Z"/>
</svg>