<svg 
 xmlns="http://www.w3.org/2000/svg"
 xmlns:xlink="http://www.w3.org/1999/xlink"
 width="339px" height="81px">
<path fill-rule="evenodd"  fill="rgb(0, 179, 227)"
 d="M338.513,45.931 L330.560,45.931 L318.942,28.778 L311.707,37.108 L311.707,45.931 L305.624,45.931 L305.624,7.562 L311.707,7.562 L311.707,27.852 L329.748,7.562 L337.248,7.562 L323.268,23.469 L338.513,45.931 ZM307.588,63.991 C308.174,63.764 308.816,63.651 309.515,63.651 C310.233,63.651 310.894,63.764 311.480,63.991 C312.066,64.217 312.576,64.539 312.991,64.955 C313.407,65.370 313.728,65.880 313.955,66.447 C314.181,67.032 314.295,67.675 314.295,68.355 L314.295,69.640 L314.257,69.640 C314.257,69.847 314.200,69.998 314.087,70.111 C313.974,70.225 313.841,70.282 313.728,70.282 L307.362,70.282 C307.210,70.282 307.097,70.319 307.003,70.414 C306.908,70.508 306.870,70.622 306.870,70.773 L306.870,71.301 C306.870,71.661 306.908,72.020 307.003,72.360 C307.097,72.700 307.248,72.983 307.456,73.247 C307.664,73.493 307.947,73.701 308.268,73.833 C308.608,73.985 309.005,74.060 309.477,74.060 C310.025,74.060 310.516,73.927 310.970,73.682 C311.423,73.436 311.801,73.097 312.103,72.681 C312.255,72.473 312.424,72.454 312.651,72.606 L313.615,73.267 C313.841,73.418 313.898,73.550 313.841,73.701 C313.407,74.494 312.802,75.061 312.047,75.420 C311.291,75.779 310.460,75.949 309.572,75.949 C308.098,75.949 306.927,75.553 306.039,74.740 C305.151,73.927 304.717,72.851 304.717,71.472 L304.717,68.355 C304.717,67.656 304.830,67.032 305.076,66.447 C305.302,65.861 305.643,65.370 306.077,64.955 C306.512,64.539 307.003,64.217 307.588,63.991 ZM306.908,68.204 C306.908,68.280 306.927,68.355 306.984,68.431 C307.040,68.506 307.154,68.544 307.305,68.544 L311.782,68.544 C311.971,68.544 312.047,68.450 312.047,68.241 L312.047,67.995 C312.047,67.297 311.820,66.711 311.385,66.239 C310.970,65.748 310.328,65.502 309.477,65.502 C308.722,65.502 308.098,65.748 307.626,66.239 C307.154,66.730 306.908,67.316 306.908,68.015 L306.908,68.204 ZM301.449,75.779 L300.070,75.779 C299.805,75.779 299.673,75.684 299.673,75.477 L299.673,70.641 C299.673,70.489 299.616,70.414 299.484,70.414 L295.026,70.414 C294.893,70.414 294.837,70.489 294.837,70.641 L294.837,75.439 C294.837,75.590 294.799,75.684 294.723,75.703 C294.648,75.742 294.553,75.760 294.459,75.760 L293.061,75.760 C292.796,75.760 292.664,75.666 292.664,75.457 L292.664,64.123 C292.664,64.029 292.683,63.954 292.740,63.896 C292.778,63.839 292.872,63.802 293.023,63.802 L294.497,63.802 C294.648,63.802 294.742,63.820 294.780,63.878 C294.818,63.915 294.856,63.991 294.856,64.104 L294.856,68.525 C294.856,68.562 294.874,68.601 294.912,68.657 C294.950,68.714 294.988,68.732 295.045,68.732 L299.503,68.732 C299.635,68.732 299.692,68.657 299.692,68.525 L299.692,64.123 C299.692,63.896 299.824,63.802 300.070,63.802 L301.449,63.802 C301.732,63.802 301.883,63.896 301.883,64.104 L301.883,75.439 C301.864,75.590 301.827,75.684 301.732,75.723 C301.656,75.760 301.562,75.779 301.449,75.779 ZM247.268,48.915 L242.376,48.915 L244.567,44.533 L252.671,28.343 L263.760,6.184 L266.462,0.780 L269.144,6.184 L280.234,28.343 L288.338,44.533 L290.529,48.915 L285.637,48.915 L247.268,48.915 ZM277.551,29.703 L266.462,7.544 L255.392,29.703 L247.287,45.894 L285.655,45.894 L277.551,29.703 ZM257.999,31.025 L274.925,31.025 L281.103,43.381 L251.821,43.381 L257.999,31.025 ZM266.462,14.118 L272.620,26.416 L260.303,26.416 L266.462,14.118 ZM248.232,63.726 C248.534,63.726 248.704,63.878 248.704,64.199 L248.704,75.345 C248.704,75.627 248.591,75.779 248.345,75.779 L246.909,75.779 C246.739,75.779 246.626,75.742 246.569,75.684 C246.513,75.627 246.494,75.496 246.494,75.307 L246.494,71.642 C246.494,71.416 246.362,71.282 246.116,71.282 L243.603,71.282 C243.414,71.282 243.282,71.377 243.188,71.547 L241.393,75.231 C241.299,75.401 241.223,75.515 241.129,75.609 C241.053,75.703 240.864,75.742 240.562,75.742 L239.391,75.742 C239.277,75.742 239.183,75.723 239.107,75.684 C239.032,75.647 238.975,75.572 238.975,75.457 C238.975,75.363 239.013,75.250 239.088,75.099 L241.053,71.170 C241.110,71.057 241.129,70.981 241.129,70.943 C241.129,70.886 241.091,70.811 240.996,70.716 C240.486,70.301 240.090,69.810 239.787,69.243 C239.504,68.732 239.353,68.128 239.353,67.448 C239.353,66.938 239.428,66.465 239.598,65.993 C239.768,65.540 239.995,65.144 240.316,64.803 C240.619,64.463 241.015,64.199 241.450,64.010 C241.903,63.820 242.394,63.726 242.942,63.726 L248.232,63.726 ZM242.413,65.729 C242.187,65.861 242.017,66.012 241.884,66.220 C241.752,66.428 241.658,66.635 241.582,66.881 C241.506,67.127 241.488,67.353 241.488,67.561 C241.488,67.807 241.582,68.110 241.752,68.468 C241.922,68.808 242.187,69.110 242.564,69.375 C242.621,69.413 242.678,69.431 242.734,69.451 C242.791,69.470 242.886,69.470 243.037,69.470 L246.173,69.470 C246.399,69.470 246.532,69.337 246.532,69.054 L246.532,65.823 C246.532,65.615 246.418,65.521 246.210,65.521 L243.226,65.521 L243.226,65.540 C242.904,65.540 242.621,65.596 242.413,65.729 ZM236.122,75.760 L234.668,75.760 C234.517,75.760 234.422,75.742 234.384,75.684 C234.347,75.627 234.309,75.533 234.309,75.420 L234.309,65.918 C234.309,65.823 234.290,65.767 234.233,65.710 C234.177,65.672 234.120,65.635 234.063,65.635 L231.135,65.635 C231.041,65.635 230.984,65.672 230.927,65.729 C230.890,65.785 230.852,65.861 230.852,65.937 L230.852,68.431 C230.852,69.904 230.776,71.094 230.625,72.001 C230.474,72.907 230.247,73.644 229.964,74.212 C229.681,74.778 229.322,75.212 228.887,75.496 C228.453,75.779 227.961,76.043 227.395,76.270 C227.187,76.346 227.055,76.289 226.960,76.100 L226.488,75.042 C226.431,74.929 226.412,74.853 226.450,74.778 C226.488,74.721 226.582,74.645 226.734,74.551 C227.092,74.324 227.414,74.117 227.678,73.890 C227.943,73.663 228.150,73.361 228.320,72.946 C228.490,72.530 228.604,71.982 228.679,71.282 C228.755,70.584 228.812,69.640 228.812,68.450 L228.812,64.161 C228.812,63.934 228.963,63.820 229.246,63.820 L236.104,63.820 C236.198,63.820 236.274,63.839 236.368,63.896 C236.444,63.954 236.481,64.029 236.481,64.142 L236.481,75.383 C236.481,75.533 236.444,75.627 236.368,75.684 C236.292,75.742 236.198,75.760 236.122,75.760 ZM201.419,7.562 L226.356,7.562 L226.356,13.060 L207.502,13.060 L207.502,23.469 L224.542,23.469 L224.542,29.439 L207.502,29.439 L207.502,39.848 L226.356,39.848 L226.356,45.931 L201.419,45.931 L201.419,7.562 ZM208.144,64.142 L208.144,65.295 C208.144,65.521 208.031,65.653 207.767,65.653 L202.685,65.653 C202.496,65.653 202.401,65.691 202.401,65.748 C202.383,65.805 202.383,65.918 202.383,66.069 L202.383,75.401 C202.383,75.647 202.250,75.779 202.005,75.779 L200.588,75.779 C200.323,75.779 200.210,75.666 200.210,75.420 L200.210,64.180 C200.210,63.934 200.342,63.820 200.588,63.820 L207.767,63.820 C208.012,63.820 208.144,63.934 208.144,64.142 ZM196.810,75.779 L195.431,75.779 C195.166,75.779 195.034,75.684 195.034,75.477 L195.034,70.641 C195.034,70.489 194.977,70.414 194.845,70.414 L190.387,70.414 C190.254,70.414 190.198,70.489 190.198,70.641 L190.198,75.439 C190.198,75.590 190.160,75.684 190.084,75.703 C190.009,75.742 189.914,75.760 189.820,75.760 L188.422,75.760 C188.157,75.760 188.025,75.666 188.025,75.457 L188.025,64.123 C188.025,64.029 188.044,63.954 188.101,63.896 C188.139,63.839 188.233,63.802 188.384,63.802 L189.858,63.802 C190.009,63.802 190.103,63.820 190.141,63.878 C190.179,63.915 190.217,63.991 190.217,64.104 L190.217,68.525 C190.217,68.562 190.235,68.601 190.273,68.657 C190.311,68.714 190.349,68.732 190.405,68.732 L194.864,68.732 C194.996,68.732 195.053,68.657 195.053,68.525 L195.053,64.123 C195.053,63.896 195.185,63.802 195.431,63.802 L196.810,63.802 C197.093,63.802 197.244,63.896 197.244,64.104 L197.244,75.439 C197.206,75.590 197.169,75.684 197.093,75.723 C197.017,75.760 196.923,75.779 196.810,75.779 ZM184.719,75.760 L183.170,75.760 C183.038,75.760 182.962,75.742 182.906,75.703 C182.868,75.666 182.830,75.572 182.830,75.439 L182.830,67.542 C182.830,67.448 182.811,67.410 182.792,67.410 C182.773,67.429 182.736,67.448 182.698,67.486 L181.300,69.810 L177.805,75.439 C177.692,75.647 177.597,75.742 177.522,75.760 C177.446,75.779 177.370,75.779 177.276,75.779 L175.972,75.779 C175.821,75.779 175.727,75.760 175.689,75.723 C175.651,75.684 175.614,75.590 175.614,75.457 L175.614,64.085 C175.614,63.896 175.727,63.820 175.972,63.820 L177.446,63.820 C177.597,63.820 177.673,63.839 177.710,63.896 C177.729,63.954 177.748,64.029 177.748,64.123 L177.748,71.925 C177.748,72.152 177.805,72.171 177.918,72.039 L179.392,69.601 L182.754,64.217 C182.849,64.066 182.925,63.972 183.019,63.896 C183.095,63.839 183.246,63.802 183.435,63.802 L184.663,63.802 C184.814,63.802 184.908,63.820 184.946,63.878 C184.984,63.934 185.021,64.010 185.021,64.104 L185.021,75.457 C185.021,75.666 184.927,75.760 184.719,75.760 ZM165.752,33.104 C163.882,33.104 161.539,33.104 159.669,32.499 L159.669,45.931 L153.643,45.931 L153.643,7.562 L165.148,7.562 C177.370,7.562 180.998,13.646 180.979,20.333 C180.979,27.077 176.161,33.104 165.752,33.104 ZM165.752,13.041 L159.669,13.041 L159.669,27.077 L165.752,27.077 C171.344,27.077 174.310,24.621 174.310,20.333 C174.310,16.101 171.835,13.041 165.752,13.041 ZM151.206,75.779 L149.751,75.779 C149.506,75.779 149.374,75.647 149.374,75.401 L149.241,72.870 C149.222,72.530 149.166,72.190 149.090,71.868 C149.015,71.547 148.863,71.264 148.674,71.019 C148.486,70.773 148.221,70.584 147.900,70.452 C147.579,70.319 147.163,70.244 146.672,70.244 C145.822,70.244 145.161,70.489 144.726,71.000 C144.273,71.510 144.065,72.114 144.065,72.832 L144.065,75.515 C144.065,75.703 143.971,75.779 143.801,75.779 L142.138,75.779 C141.949,75.779 141.855,75.703 141.855,75.533 L141.855,64.048 C141.855,63.859 141.930,63.784 142.100,63.784 L143.801,63.784 C143.971,63.784 144.046,63.859 144.046,64.029 L144.046,68.317 C144.046,68.525 144.084,68.638 144.178,68.676 C144.273,68.714 144.367,68.676 144.443,68.601 L148.675,63.991 C148.769,63.896 148.901,63.859 149.052,63.859 L151.074,63.859 C151.282,63.859 151.376,63.934 151.376,64.104 C151.376,64.142 151.357,64.180 151.338,64.236 C151.319,64.275 151.282,64.331 151.244,64.350 L147.636,68.222 C147.522,68.355 147.560,68.450 147.749,68.487 C147.938,68.506 148.108,68.525 148.259,68.544 C148.410,68.562 148.561,68.581 148.712,68.619 C149.222,68.751 149.657,68.940 149.997,69.205 C150.337,69.470 150.620,69.791 150.828,70.168 C151.036,70.546 151.187,70.961 151.300,71.416 C151.395,71.868 151.470,72.360 151.508,72.870 L151.622,75.345 C151.603,75.609 151.470,75.779 151.206,75.779 ZM137.774,74.627 C137.378,75.042 136.924,75.363 136.395,75.609 C135.866,75.836 135.281,75.968 134.638,75.968 C133.939,75.968 133.391,75.873 132.995,75.703 C132.598,75.533 132.296,75.345 132.050,75.118 C131.899,74.986 131.786,74.967 131.710,75.023 C131.635,75.080 131.597,75.175 131.597,75.288 L131.597,80.445 C131.597,80.635 131.521,80.709 131.351,80.709 L129.651,80.709 C129.481,80.709 129.405,80.635 129.405,80.465 L129.405,64.066 C129.405,63.896 129.481,63.820 129.651,63.820 L131.143,63.820 C131.332,63.820 131.408,63.896 131.408,64.066 L131.408,64.633 C131.408,64.747 131.446,64.784 131.540,64.784 C131.635,64.766 131.729,64.709 131.842,64.614 C132.069,64.406 132.428,64.217 132.881,64.010 C133.335,63.802 133.920,63.689 134.600,63.689 C135.904,63.689 136.962,64.066 137.774,64.841 C138.587,65.615 138.983,66.711 138.983,68.165 L138.983,71.377 L139.002,71.377 C139.002,72.020 138.889,72.606 138.681,73.172 C138.454,73.720 138.152,74.212 137.774,74.627 ZM136.830,68.204 C136.830,67.448 136.603,66.805 136.168,66.315 C135.715,65.823 135.073,65.559 134.223,65.559 C133.467,65.559 132.825,65.805 132.334,66.315 C131.842,66.805 131.597,67.429 131.597,68.185 L131.597,71.397 C131.597,72.133 131.842,72.776 132.315,73.304 C132.806,73.833 133.429,74.097 134.204,74.097 C134.997,74.097 135.640,73.833 136.112,73.323 C136.584,72.813 136.830,72.171 136.830,71.397 L136.830,68.204 ZM120.338,45.931 L113.707,45.931 L113.707,13.060 L100.313,13.060 L100.313,7.562 L133.750,7.562 L133.750,13.060 L120.338,13.060 L120.338,45.931 ZM98.858,70.168 L93.285,70.168 C93.096,70.168 93.021,70.074 93.021,69.904 L93.021,68.657 C93.021,68.468 93.096,68.392 93.266,68.392 L98.839,68.392 C99.028,68.392 99.104,68.468 99.104,68.638 L99.104,69.922 C99.104,70.093 99.028,70.168 98.858,70.168 ZM90.829,65.653 L87.863,65.653 C87.788,65.653 87.750,65.672 87.712,65.729 C87.693,65.785 87.674,65.842 87.674,65.899 L87.674,75.401 C87.674,75.553 87.656,75.647 87.599,75.703 C87.561,75.760 87.467,75.779 87.316,75.779 L85.880,75.779 C85.615,75.779 85.483,75.666 85.483,75.420 L85.483,65.899 C85.483,65.729 85.408,65.653 85.256,65.653 L82.385,65.653 C82.234,65.653 82.139,65.635 82.064,65.578 C82.007,65.540 81.969,65.445 81.969,65.295 L81.969,64.180 C81.969,63.934 82.101,63.820 82.385,63.820 L90.829,63.820 C91.094,63.820 91.245,63.934 91.245,64.142 L91.245,65.295 C91.245,65.521 91.113,65.653 90.829,65.653 ZM57.902,7.562 L82.838,7.562 L82.838,13.060 L63.985,13.060 L63.985,23.469 L81.025,23.469 L81.025,29.439 L63.985,29.439 L63.985,39.848 L82.838,39.848 L82.838,45.931 L57.902,45.931 L57.902,7.562 ZM55.011,74.627 C54.615,75.042 54.161,75.363 53.632,75.609 C53.103,75.836 52.518,75.968 51.875,75.968 C51.158,75.968 50.629,75.873 50.232,75.703 C49.835,75.533 49.533,75.345 49.287,75.118 C49.136,74.986 49.023,74.967 48.947,75.023 C48.872,75.080 48.834,75.175 48.834,75.288 L48.834,80.445 C48.834,80.635 48.758,80.709 48.588,80.709 L46.888,80.709 C46.718,80.709 46.642,80.635 46.642,80.465 L46.642,64.066 C46.642,63.896 46.718,63.820 46.888,63.820 L48.381,63.820 C48.569,63.820 48.664,63.896 48.664,64.066 L48.664,64.633 C48.664,64.747 48.702,64.784 48.796,64.784 C48.891,64.766 48.985,64.709 49.098,64.614 C49.325,64.406 49.684,64.217 50.137,64.010 C50.610,63.802 51.176,63.689 51.857,63.689 C53.160,63.689 54.218,64.066 55.030,64.841 C55.843,65.615 56.239,66.711 56.239,68.165 L56.239,71.377 C56.239,72.020 56.126,72.606 55.918,73.172 C55.710,73.720 55.389,74.212 55.011,74.627 ZM54.067,68.204 C54.067,67.448 53.840,66.805 53.406,66.315 C52.952,65.823 52.310,65.559 51.460,65.559 C50.704,65.559 50.062,65.805 49.571,66.315 C49.079,66.805 48.834,67.429 48.834,68.185 L48.834,71.397 C48.834,72.133 49.079,72.776 49.552,73.304 C50.024,73.833 50.666,74.097 51.441,74.097 C52.234,74.097 52.877,73.833 53.349,73.323 C53.821,72.813 54.067,72.171 54.067,71.397 L54.067,68.204 ZM43.884,70.111 C43.771,70.225 43.639,70.282 43.525,70.282 L37.159,70.282 C37.008,70.282 36.895,70.319 36.800,70.414 C36.706,70.508 36.668,70.622 36.668,70.773 L36.668,71.301 C36.668,71.661 36.706,72.020 36.800,72.360 C36.895,72.700 37.046,72.983 37.254,73.247 C37.461,73.493 37.726,73.701 38.066,73.833 C38.406,73.985 38.803,74.060 39.275,74.060 C39.823,74.060 40.314,73.927 40.767,73.682 C41.221,73.436 41.599,73.097 41.901,72.681 C42.052,72.473 42.222,72.454 42.449,72.606 L43.412,73.267 C43.639,73.418 43.695,73.550 43.639,73.701 C43.204,74.494 42.600,75.061 41.844,75.420 C41.088,75.779 40.257,75.949 39.350,75.949 C37.877,75.949 36.706,75.553 35.818,74.740 C34.930,73.927 34.495,72.851 34.495,71.472 L34.495,68.355 C34.495,67.656 34.609,67.032 34.854,66.447 C35.081,65.861 35.421,65.370 35.856,64.955 C36.290,64.539 36.781,64.217 37.367,63.991 C37.953,63.764 38.595,63.651 39.294,63.651 C40.012,63.651 40.673,63.764 41.258,63.991 C41.844,64.217 42.354,64.539 42.770,64.955 C43.185,65.370 43.507,65.880 43.733,66.447 C43.960,67.032 44.073,67.675 44.073,68.355 L44.073,69.640 L44.054,69.640 C44.054,69.847 43.998,69.998 43.884,70.111 ZM41.844,67.995 C41.844,67.297 41.617,66.711 41.183,66.239 C40.767,65.748 40.125,65.502 39.275,65.502 C38.519,65.502 37.896,65.748 37.424,66.239 C36.951,66.730 36.706,67.316 36.706,68.015 L36.706,68.204 C36.706,68.280 36.725,68.355 36.781,68.431 C36.838,68.506 36.951,68.544 37.102,68.544 L41.580,68.544 C41.769,68.544 41.844,68.450 41.844,68.241 L41.844,67.995 ZM6.083,17.934 L6.083,45.931 L-0.000,45.931 L-0.000,7.562 L4.874,7.562 L28.620,35.635 L28.620,7.562 L34.760,7.562 L34.760,45.931 L29.225,45.931 L6.083,17.934 ZM1.133,63.820 L2.607,63.820 C2.758,63.820 2.834,63.839 2.871,63.896 C2.890,63.954 2.909,64.029 2.909,64.123 L2.909,71.925 C2.909,72.152 2.966,72.171 3.079,72.039 L4.553,69.601 L7.915,64.217 C8.010,64.066 8.085,63.972 8.180,63.896 C8.255,63.839 8.406,63.802 8.595,63.802 L9.823,63.802 C9.974,63.802 10.069,63.820 10.107,63.878 C10.144,63.934 10.182,64.010 10.182,64.104 L10.182,75.457 C10.182,75.666 10.088,75.760 9.880,75.760 L8.312,75.760 C8.180,75.760 8.104,75.742 8.048,75.703 C8.010,75.666 7.972,75.572 7.972,75.439 L7.972,67.542 C7.972,67.448 7.953,67.410 7.934,67.410 C7.915,67.429 7.878,67.448 7.840,67.486 L6.442,69.810 L2.947,75.439 C2.834,75.647 2.739,75.742 2.682,75.760 C2.607,75.779 2.531,75.779 2.437,75.779 L1.133,75.779 C0.982,75.779 0.888,75.760 0.850,75.723 C0.812,75.684 0.774,75.590 0.774,75.457 L0.774,64.085 C0.774,63.896 0.888,63.820 1.133,63.820 ZM13.545,63.802 L15.018,63.802 C15.170,63.802 15.264,63.820 15.302,63.878 C15.340,63.915 15.377,63.991 15.377,64.104 L15.377,68.525 C15.377,68.562 15.396,68.601 15.434,68.657 C15.472,68.714 15.510,68.732 15.566,68.732 L20.006,68.732 C20.138,68.732 20.195,68.657 20.195,68.525 L20.195,64.123 C20.195,63.896 20.327,63.802 20.572,63.802 L21.952,63.802 C22.235,63.802 22.386,63.896 22.386,64.104 L22.386,75.439 C22.367,75.590 22.329,75.684 22.254,75.723 C22.178,75.760 22.084,75.779 21.970,75.779 L20.591,75.779 C20.327,75.779 20.195,75.684 20.195,75.477 L20.195,70.641 C20.195,70.489 20.138,70.414 20.006,70.414 L15.547,70.414 C15.415,70.414 15.359,70.489 15.359,70.641 L15.359,75.439 C15.359,75.590 15.321,75.684 15.245,75.703 C15.170,75.742 15.075,75.760 14.981,75.760 L13.583,75.760 C13.318,75.760 13.186,75.666 13.186,75.457 L13.186,64.123 C13.186,64.029 13.205,63.954 13.262,63.896 C13.299,63.839 13.394,63.802 13.545,63.802 ZM24.559,63.820 L33.003,63.820 C33.267,63.820 33.419,63.934 33.419,64.142 L33.419,65.295 C33.437,65.521 33.286,65.653 33.022,65.653 L30.037,65.653 C29.962,65.653 29.924,65.672 29.886,65.729 C29.867,65.785 29.848,65.842 29.848,65.899 L29.848,75.401 C29.848,75.553 29.829,75.647 29.773,75.703 C29.735,75.760 29.640,75.779 29.489,75.779 L28.053,75.779 C27.789,75.779 27.657,75.666 27.657,75.420 L27.657,65.899 C27.657,65.729 27.581,65.653 27.430,65.653 L24.559,65.653 C24.407,65.653 24.313,65.635 24.237,65.578 C24.181,65.540 24.143,65.445 24.143,65.295 L24.143,64.180 C24.143,63.934 24.275,63.820 24.559,63.820 ZM59.413,63.802 L60.887,63.802 C61.038,63.802 61.132,63.820 61.170,63.878 C61.208,63.915 61.246,63.991 61.246,64.104 L61.246,68.525 C61.246,68.562 61.264,68.601 61.302,68.657 C61.340,68.714 61.378,68.732 61.434,68.732 L65.874,68.732 C66.006,68.732 66.063,68.657 66.063,68.525 L66.063,64.123 C66.063,63.896 66.195,63.802 66.441,63.802 L67.820,63.802 C68.103,63.802 68.254,63.896 68.254,64.104 L68.254,75.439 C68.235,75.590 68.198,75.684 68.103,75.723 C68.028,75.760 67.933,75.779 67.820,75.779 L66.441,75.779 C66.176,75.779 66.044,75.684 66.044,75.477 L66.044,70.641 C66.044,70.489 65.987,70.414 65.855,70.414 L61.416,70.414 C61.283,70.414 61.227,70.489 61.227,70.641 L61.227,75.439 C61.227,75.590 61.189,75.684 61.113,75.703 C61.038,75.742 60.943,75.760 60.849,75.760 L59.451,75.760 C59.186,75.760 59.054,75.666 59.054,75.457 L59.054,64.123 C59.054,64.029 59.073,63.954 59.130,63.896 C59.167,63.839 59.262,63.802 59.413,63.802 ZM72.429,64.955 C72.864,64.539 73.355,64.217 73.940,63.991 C74.526,63.764 75.168,63.651 75.867,63.651 C76.585,63.651 77.246,63.764 77.832,63.991 C78.418,64.217 78.928,64.539 79.343,64.955 C79.759,65.370 80.080,65.880 80.307,66.447 C80.534,67.032 80.647,67.675 80.647,68.355 L80.647,69.640 L80.628,69.640 C80.628,69.847 80.571,69.998 80.458,70.111 C80.345,70.225 80.212,70.282 80.099,70.282 L73.733,70.282 C73.581,70.282 73.468,70.319 73.374,70.414 C73.279,70.508 73.241,70.622 73.241,70.773 L73.241,71.301 C73.241,71.661 73.279,72.020 73.374,72.360 C73.468,72.700 73.619,72.983 73.827,73.247 C74.035,73.493 74.299,73.701 74.639,73.833 C74.980,73.985 75.376,74.060 75.848,74.060 C76.396,74.060 76.888,73.927 77.341,73.682 C77.794,73.436 78.172,73.097 78.474,72.681 C78.626,72.473 78.796,72.454 79.022,72.606 L79.986,73.267 C80.212,73.418 80.269,73.550 80.212,73.701 C79.778,74.494 79.173,75.061 78.418,75.420 C77.662,75.779 76.831,75.949 75.924,75.949 C74.451,75.949 73.279,75.553 72.391,74.740 C71.503,73.927 71.069,72.851 71.069,71.472 L71.069,68.355 C71.069,67.656 71.182,67.032 71.428,66.447 C71.655,65.861 71.995,65.370 72.429,64.955 ZM73.279,68.204 C73.279,68.280 73.298,68.355 73.355,68.431 C73.412,68.506 73.525,68.544 73.676,68.544 L78.153,68.544 C78.342,68.544 78.418,68.450 78.418,68.241 L78.418,67.995 C78.418,67.297 78.191,66.711 77.757,66.239 C77.341,65.748 76.699,65.502 75.848,65.502 C75.074,65.502 74.469,65.748 73.997,66.239 C73.525,66.730 73.279,67.316 73.279,68.015 L73.279,68.204 ZM102.674,63.802 L103.902,63.802 C104.129,63.802 104.261,63.839 104.318,63.915 C104.374,63.991 104.431,64.085 104.488,64.180 C104.847,64.898 105.262,65.691 105.697,66.617 C106.131,67.524 106.566,68.431 106.981,69.318 C107.227,69.828 107.473,70.338 107.699,70.867 C107.926,71.416 108.134,71.887 108.342,72.284 C108.379,72.360 108.417,72.360 108.455,72.284 L109.928,69.016 L112.233,64.180 C112.328,64.029 112.403,63.934 112.460,63.896 C112.517,63.859 112.630,63.820 112.800,63.820 L114.122,63.820 C114.368,63.820 114.481,63.934 114.481,64.180 L114.481,75.401 C114.481,75.647 114.349,75.779 114.085,75.779 L112.668,75.779 C112.498,75.779 112.403,75.760 112.347,75.703 C112.309,75.647 112.271,75.553 112.271,75.439 L112.271,68.732 C112.271,68.544 112.252,68.487 112.195,68.544 C112.158,68.601 112.101,68.657 112.063,68.714 L110.967,71.000 L109.229,74.437 C109.192,74.513 109.154,74.589 109.097,74.683 C109.041,74.778 108.927,74.815 108.776,74.815 L107.794,74.815 C107.586,74.815 107.435,74.703 107.340,74.457 L105.810,71.340 L104.601,68.714 C104.563,68.619 104.525,68.562 104.488,68.544 C104.450,68.525 104.431,68.581 104.431,68.714 L104.431,75.401 C104.431,75.553 104.412,75.647 104.355,75.703 C104.318,75.760 104.204,75.779 104.072,75.779 L102.712,75.779 C102.447,75.779 102.296,75.666 102.296,75.420 L102.296,64.199 C102.296,64.104 102.315,64.029 102.372,63.934 C102.429,63.859 102.523,63.802 102.674,63.802 ZM118.165,68.789 C118.543,68.411 118.996,68.128 119.544,67.901 C120.092,67.675 120.734,67.580 121.452,67.580 C122.246,67.580 122.963,67.750 123.606,68.091 C123.738,68.165 123.851,68.185 123.946,68.165 C124.040,68.147 124.097,68.053 124.097,67.883 L124.097,67.637 C124.097,66.920 123.908,66.371 123.530,66.031 C123.152,65.691 122.529,65.521 121.660,65.521 C121.490,65.521 121.282,65.540 121.037,65.578 C120.772,65.615 120.526,65.653 120.262,65.710 C119.998,65.767 119.733,65.842 119.487,65.918 C119.242,65.993 119.015,66.088 118.864,66.182 C118.656,66.277 118.524,66.220 118.448,66.012 L117.976,64.803 C117.919,64.614 117.976,64.501 118.108,64.444 C118.600,64.199 119.185,63.991 119.884,63.839 C120.583,63.689 121.244,63.613 121.906,63.613 C122.737,63.613 123.436,63.708 124.002,63.915 C124.569,64.123 125.023,64.406 125.363,64.784 C125.703,65.162 125.929,65.635 126.081,66.163 C126.213,66.692 126.288,67.297 126.288,67.958 L126.288,75.496 C126.288,75.684 126.213,75.760 126.043,75.760 L124.550,75.760 C124.380,75.760 124.305,75.684 124.305,75.533 L124.305,75.042 C124.305,74.910 124.267,74.834 124.191,74.815 C124.116,74.797 124.040,74.834 123.946,74.929 C123.587,75.288 123.171,75.553 122.699,75.684 C122.227,75.836 121.736,75.912 121.207,75.912 C119.846,75.912 118.807,75.533 118.089,74.759 C117.390,74.022 117.032,73.021 117.032,71.755 C117.032,71.170 117.126,70.622 117.315,70.111 C117.504,69.601 117.787,69.167 118.165,68.789 ZM119.695,73.399 C120.092,73.871 120.715,74.097 121.547,74.097 C122.283,74.097 122.888,73.871 123.322,73.418 C123.757,72.964 123.984,72.397 123.984,71.698 C123.984,71.019 123.795,70.452 123.398,69.998 C123.001,69.525 122.378,69.300 121.528,69.300 C120.791,69.300 120.186,69.525 119.752,69.980 C119.299,70.433 119.091,71.019 119.091,71.698 C119.091,72.379 119.299,72.946 119.695,73.399 ZM155.003,64.955 C155.438,64.539 155.929,64.217 156.514,63.991 C157.100,63.764 157.742,63.651 158.441,63.651 C159.159,63.651 159.820,63.764 160.406,63.991 C160.992,64.217 161.502,64.539 161.917,64.955 C162.333,65.370 162.654,65.880 162.881,66.447 C163.107,67.032 163.221,67.675 163.221,68.355 L163.221,69.640 L163.202,69.640 C163.202,69.847 163.145,69.998 163.032,70.111 C162.919,70.225 162.786,70.282 162.673,70.282 L156.307,70.282 C156.156,70.282 156.042,70.319 155.948,70.414 C155.853,70.508 155.815,70.622 155.815,70.773 L155.815,71.301 C155.815,71.661 155.853,72.020 155.948,72.360 C156.042,72.700 156.193,72.983 156.401,73.247 C156.609,73.493 156.873,73.701 157.213,73.833 C157.553,73.985 157.950,74.060 158.422,74.060 C158.970,74.060 159.461,73.927 159.915,73.682 C160.368,73.436 160.746,73.097 161.048,72.681 C161.199,72.473 161.370,72.454 161.596,72.606 L162.560,73.267 C162.786,73.418 162.843,73.550 162.786,73.701 C162.352,74.494 161.747,75.061 160.992,75.420 C160.217,75.779 159.405,75.949 158.498,75.949 C157.024,75.949 155.853,75.553 154.965,74.740 C154.077,73.927 153.643,72.851 153.643,71.472 L153.643,68.355 C153.643,67.656 153.756,67.032 154.002,66.447 C154.229,65.861 154.569,65.370 155.003,64.955 ZM155.853,68.204 C155.853,68.280 155.872,68.355 155.929,68.431 C155.985,68.506 156.099,68.544 156.250,68.544 L160.727,68.544 C160.916,68.544 160.992,68.450 160.992,68.241 L160.992,67.995 C160.992,67.297 160.765,66.711 160.330,66.239 C159.915,65.748 159.273,65.502 158.422,65.502 C157.648,65.502 157.043,65.748 156.571,66.239 C156.099,66.730 155.853,67.316 155.853,68.015 L155.853,68.204 ZM164.959,63.820 L173.384,63.820 C173.649,63.820 173.800,63.934 173.800,64.142 L173.800,65.295 C173.819,65.521 173.687,65.653 173.403,65.653 L170.418,65.653 C170.343,65.653 170.305,65.672 170.267,65.729 C170.248,65.785 170.230,65.842 170.230,65.899 L170.230,75.401 C170.230,75.553 170.211,75.647 170.173,75.703 C170.135,75.760 170.041,75.779 169.889,75.779 L168.454,75.779 C168.189,75.779 168.057,75.666 168.057,75.420 L168.057,65.899 C168.057,65.729 167.982,65.653 167.830,65.653 L164.959,65.653 C164.808,65.653 164.713,65.635 164.638,65.578 C164.581,65.540 164.543,65.445 164.543,65.295 L164.543,64.180 C164.543,63.934 164.675,63.820 164.959,63.820 ZM214.473,73.985 L214.945,73.871 C215.153,73.815 215.323,73.701 215.474,73.531 C215.625,73.361 215.758,73.153 215.852,72.927 C215.947,72.681 216.041,72.436 216.117,72.171 C216.192,71.906 216.249,71.642 216.287,71.416 C216.400,70.735 216.476,70.206 216.532,69.810 C216.589,69.413 216.627,68.997 216.664,68.562 C216.702,68.128 216.740,67.599 216.797,66.995 C216.835,66.390 216.910,65.521 217.005,64.425 C217.023,64.199 217.061,64.066 217.137,63.972 C217.212,63.896 217.345,63.839 217.552,63.839 L224.013,63.839 L224.013,63.820 C224.221,63.820 224.353,63.839 224.429,63.896 C224.504,63.934 224.542,64.066 224.542,64.293 L224.542,73.569 C224.542,73.720 224.561,73.796 224.599,73.833 C224.636,73.871 224.712,73.890 224.844,73.890 L225.279,73.890 C225.430,73.890 225.524,73.947 225.581,74.041 C225.638,74.136 225.657,74.248 225.657,74.382 L225.657,78.311 C225.638,78.537 225.600,78.689 225.524,78.726 C225.449,78.763 225.354,78.783 225.260,78.783 L224.259,78.783 C224.108,78.783 224.013,78.763 223.938,78.726 C223.881,78.689 223.824,78.556 223.805,78.329 L223.805,76.063 C223.786,75.968 223.768,75.912 223.749,75.854 C223.730,75.817 223.635,75.779 223.484,75.779 L216.305,75.779 C216.230,75.779 216.154,75.797 216.098,75.817 C216.041,75.836 215.984,75.930 215.965,76.081 L215.965,78.329 C215.965,78.556 215.928,78.708 215.833,78.726 C215.758,78.763 215.663,78.783 215.550,78.783 L214.549,78.783 C214.397,78.783 214.303,78.763 214.227,78.726 C214.171,78.689 214.114,78.556 214.095,78.311 L214.095,74.551 C214.095,74.400 214.114,74.287 214.133,74.193 C214.152,74.097 214.265,74.022 214.473,73.985 ZM217.741,73.909 L222.029,73.909 C222.143,73.909 222.218,73.890 222.294,73.833 C222.351,73.796 222.388,73.682 222.388,73.512 L222.388,66.145 C222.388,65.918 222.351,65.767 222.275,65.729 C222.200,65.691 222.067,65.653 221.897,65.653 L219.234,65.653 C219.026,65.653 218.912,65.691 218.894,65.785 C218.875,65.861 218.837,65.956 218.818,66.050 C218.724,67.221 218.648,68.241 218.553,69.110 C218.478,69.980 218.384,70.754 218.289,71.434 C218.251,71.812 218.176,72.228 218.043,72.643 C217.911,73.077 217.779,73.418 217.609,73.682 L217.552,73.796 C217.552,73.871 217.609,73.909 217.741,73.909 ZM258.188,62.272 C258.603,61.554 259.189,60.912 259.944,60.345 C260.719,59.778 261.720,59.343 262.967,59.003 C263.572,58.852 264.044,58.720 264.384,58.607 C264.724,58.494 265.102,58.380 265.480,58.267 C265.631,58.229 265.744,58.229 265.820,58.248 C265.895,58.267 265.952,58.342 265.990,58.494 L266.292,59.721 C266.330,59.891 266.292,59.986 266.160,60.043 C266.046,60.099 265.933,60.137 265.839,60.175 C265.480,60.269 265.083,60.383 264.667,60.496 C264.252,60.628 263.817,60.742 263.383,60.855 C262.136,61.176 261.172,61.667 260.530,62.309 C259.888,62.952 259.510,63.839 259.397,64.992 C259.397,65.144 259.453,65.181 259.586,65.105 C260.436,64.501 261.361,64.199 262.363,64.199 C263.760,64.199 264.837,64.614 265.593,65.445 C266.349,66.277 266.726,67.372 266.726,68.771 L266.726,71.321 L266.783,71.321 C266.783,72.794 266.349,73.927 265.461,74.740 C264.573,75.533 263.402,75.949 261.928,75.949 C260.379,75.949 259.208,75.553 258.395,74.759 C257.583,73.966 257.186,72.832 257.186,71.358 L257.186,67.070 C257.186,66.239 257.243,65.408 257.375,64.577 C257.507,63.764 257.772,62.990 258.188,62.272 ZM259.397,71.340 C259.397,72.114 259.604,72.776 260.020,73.285 C260.436,73.796 261.078,74.041 261.928,74.041 C262.721,74.041 263.383,73.796 263.874,73.285 C264.365,72.794 264.611,72.133 264.611,71.340 L264.611,68.751 C264.611,67.977 264.384,67.335 263.912,66.825 C263.439,66.315 262.816,66.069 262.022,66.069 C261.229,66.069 260.587,66.315 260.114,66.805 C259.642,67.297 259.397,67.939 259.397,68.751 L259.397,71.340 ZM269.976,63.820 L271.449,63.820 C271.600,63.820 271.676,63.839 271.714,63.896 C271.733,63.954 271.752,64.029 271.752,64.123 L271.752,71.925 C271.752,72.152 271.808,72.171 271.921,72.039 L273.395,69.601 L276.758,64.217 C276.852,64.066 276.928,63.972 277.022,63.896 C277.098,63.839 277.249,63.802 277.438,63.802 L278.666,63.802 C278.817,63.802 278.911,63.820 278.949,63.878 C278.987,63.934 279.025,64.010 279.025,64.104 L279.025,75.457 C279.025,75.666 278.930,75.760 278.722,75.760 L277.173,75.760 C277.041,75.760 276.966,75.742 276.909,75.703 C276.871,75.666 276.833,75.572 276.833,75.439 L276.833,67.542 C276.833,67.448 276.814,67.410 276.796,67.410 C276.777,67.429 276.739,67.448 276.701,67.486 L275.303,69.810 L271.808,75.439 C271.695,75.647 271.600,75.742 271.544,75.760 C271.468,75.779 271.393,75.779 271.298,75.779 L269.995,75.779 C269.843,75.779 269.749,75.760 269.711,75.723 C269.673,75.684 269.636,75.590 269.636,75.457 L269.636,64.085 L269.617,64.085 C269.617,63.896 269.730,63.820 269.976,63.820 ZM282.350,72.491 C282.538,72.360 282.671,72.360 282.765,72.473 C283.086,72.888 283.464,73.267 283.861,73.588 C284.276,73.909 284.786,74.060 285.429,74.060 C285.731,74.060 286.033,74.022 286.336,73.947 C286.619,73.871 286.883,73.758 287.091,73.588 C287.318,73.418 287.488,73.210 287.620,72.964 C287.752,72.700 287.828,72.397 287.828,72.020 C287.828,71.472 287.658,71.057 287.299,70.792 C286.940,70.527 286.543,70.395 286.109,70.395 L284.144,70.395 C283.974,70.395 283.899,70.319 283.899,70.168 L283.899,68.865 C283.899,68.695 283.974,68.619 284.144,68.619 L285.939,68.619 C286.373,68.619 286.770,68.525 287.091,68.335 C287.431,68.147 287.601,67.788 287.601,67.259 C287.601,66.938 287.545,66.655 287.431,66.447 C287.318,66.220 287.167,66.050 286.959,65.918 C286.770,65.785 286.543,65.691 286.298,65.635 C286.052,65.578 285.807,65.559 285.580,65.559 C285.070,65.559 284.598,65.672 284.182,65.918 C283.747,66.163 283.389,66.523 283.086,66.975 C282.897,67.240 282.690,67.297 282.463,67.146 L281.480,66.409 C281.367,66.334 281.310,66.239 281.292,66.126 C281.273,66.012 281.292,65.899 281.367,65.805 C282.463,64.388 283.899,63.669 285.712,63.669 C286.959,63.669 287.960,63.954 288.735,64.539 C289.509,65.105 289.906,65.993 289.906,67.165 C289.906,67.448 289.812,67.845 289.623,68.317 C289.434,68.808 289.075,69.186 288.565,69.470 C288.470,69.507 288.432,69.564 288.432,69.621 C288.432,69.677 288.489,69.734 288.565,69.771 C289.094,69.998 289.490,70.338 289.736,70.811 C289.982,71.282 290.114,71.698 290.114,72.058 C290.114,73.304 289.679,74.267 288.810,74.929 C287.960,75.609 286.846,75.930 285.448,75.930 C284.635,75.930 283.823,75.779 283.049,75.457 C282.274,75.137 281.594,74.589 281.065,73.777 C280.989,73.682 280.970,73.588 280.989,73.493 C281.008,73.399 281.103,73.285 281.292,73.172 L282.350,72.491 ZM317.960,64.841 C318.394,64.444 318.885,64.142 319.471,63.934 C320.057,63.726 320.699,63.613 321.379,63.613 C323.136,63.669 324.553,64.369 325.573,65.729 C325.648,65.823 325.667,65.918 325.648,66.050 C325.630,66.163 325.573,66.258 325.459,66.334 L324.496,67.070 C324.269,67.240 324.043,67.183 323.873,66.900 C323.570,66.447 323.193,66.107 322.739,65.880 C322.286,65.653 321.813,65.540 321.303,65.540 C320.529,65.540 319.905,65.785 319.433,66.258 C318.961,66.750 318.734,67.372 318.734,68.128 L318.734,71.528 C318.734,72.284 318.980,72.888 319.452,73.342 C319.924,73.815 320.567,74.041 321.379,74.041 C322.097,74.041 322.645,73.890 323.079,73.569 C323.495,73.267 323.873,72.888 324.194,72.473 C324.288,72.360 324.421,72.379 324.609,72.491 L325.516,73.153 C325.705,73.267 325.800,73.361 325.818,73.474 C325.837,73.569 325.818,73.663 325.743,73.758 C325.195,74.570 324.553,75.137 323.797,75.439 C323.041,75.760 322.248,75.912 321.436,75.912 C319.962,75.912 318.791,75.515 317.903,74.703 C317.015,73.909 316.581,72.794 316.581,71.397 L316.581,68.261 C316.581,67.524 316.713,66.881 316.958,66.296 C317.204,65.710 317.544,65.219 317.960,64.841 ZM328.539,68.789 C328.917,68.411 329.370,68.128 329.918,67.901 C330.466,67.675 331.108,67.580 331.826,67.580 C332.619,67.580 333.337,67.750 333.980,68.091 C334.112,68.165 334.225,68.185 334.320,68.165 C334.414,68.147 334.471,68.053 334.471,67.883 L334.471,67.637 C334.471,66.920 334.282,66.371 333.904,66.031 C333.526,65.691 332.903,65.521 332.034,65.521 C331.864,65.521 331.656,65.540 331.410,65.578 C331.165,65.615 330.900,65.653 330.636,65.710 C330.371,65.767 330.107,65.842 329.861,65.918 C329.616,65.993 329.389,66.088 329.238,66.182 C329.030,66.277 328.898,66.220 328.822,66.012 L328.350,64.803 C328.293,64.614 328.331,64.501 328.482,64.444 C328.973,64.199 329.559,63.991 330.258,63.839 C330.957,63.689 331.618,63.613 332.279,63.613 C333.110,63.613 333.809,63.708 334.376,63.915 C334.943,64.123 335.396,64.406 335.717,64.784 C336.058,65.162 336.284,65.635 336.435,66.163 C336.568,66.692 336.643,67.297 336.643,67.958 L336.643,75.496 C336.643,75.684 336.568,75.760 336.398,75.760 L334.905,75.760 C334.735,75.760 334.660,75.684 334.660,75.533 L334.660,75.042 C334.660,74.910 334.622,74.834 334.546,74.815 C334.471,74.797 334.395,74.834 334.301,74.929 C333.942,75.288 333.526,75.553 333.054,75.684 C332.582,75.836 332.090,75.912 331.561,75.912 C330.201,75.912 329.162,75.533 328.444,74.759 C327.764,74.022 327.405,73.021 327.405,71.755 C327.405,71.170 327.500,70.622 327.689,70.111 C327.878,69.601 328.161,69.167 328.539,68.789 ZM330.069,73.399 C330.466,73.871 331.089,74.097 331.920,74.097 C332.657,74.097 333.262,73.871 333.696,73.418 C334.131,72.964 334.357,72.397 334.357,71.698 C334.357,71.019 334.168,70.452 333.772,69.998 C333.375,69.525 332.752,69.300 331.901,69.300 C331.165,69.300 330.560,69.525 330.126,69.980 C329.672,70.433 329.464,71.019 329.464,71.698 C329.464,72.379 329.672,72.946 330.069,73.399 Z"/>
</svg>