<svg 
 xmlns="http://www.w3.org/2000/svg"
 xmlns:xlink="http://www.w3.org/1999/xlink"
 width="390px" height="390px">
<defs>
<filter filterUnits="userSpaceOnUse" id="Filter_0" x="0px" y="0px" width="390px" height="390px"  >
    <feOffset in="SourceAlpha" dx="0" dy="0" />
    <feGaussianBlur result="blurOut" stdDeviation="3.873" />
    <feFlood flood-color="rgb(0, 0, 0)" result="floodOut" />
    <feComposite operator="atop" in="floodOut" in2="blurOut" />
    <feComponentTransfer><feFuncA type="linear" slope="0.35"/></feComponentTransfer>
    <feMerge>
    <feMergeNode/>
    <feMergeNode in="SourceGraphic"/>
  </feMerge>
</filter>
<linearGradient id="PSgrad_0" x1="0%" x2="100%" y1="0%" y2="0%">
  <stop offset="0%" stop-color="rgb(221,78,125)" stop-opacity="1" />
  <stop offset="100%" stop-color="rgb(207,94,214)" stop-opacity="1" />
</linearGradient>

</defs>
<g filter="url(#Filter_0)">
<path fill-rule="evenodd"  fill="rgb(0, 0, 0)"
 d="M195.156,374.405 C190.686,374.405 186.320,373.542 182.185,371.845 L78.284,329.207 C69.926,325.777 63.148,319.022 59.690,310.674 L17.086,207.820 C13.630,199.477 13.643,189.914 17.122,181.582 L60.412,77.892 C63.914,69.504 70.468,62.968 78.866,59.489 L181.724,16.883 C185.891,15.159 190.289,14.283 194.799,14.283 C199.347,14.283 203.782,15.173 207.978,16.927 L311.014,60.008 C319.394,63.512 325.922,70.063 329.400,78.454 L372.002,181.312 C375.481,189.709 375.493,198.965 372.039,207.372 L329.615,310.617 C326.184,318.969 319.430,325.741 311.088,329.197 L208.231,371.803 C204.065,373.530 199.666,374.405 195.156,374.405 ZM194.796,17.821 C190.517,17.821 186.342,18.651 182.389,20.290 L80.795,62.371 C72.826,65.673 66.607,71.874 63.283,79.834 L20.525,182.248 C17.224,190.156 17.212,199.231 20.491,207.147 L62.572,308.736 C65.853,316.658 72.285,323.069 80.217,326.324 L182.839,368.438 C186.764,370.047 190.907,370.866 195.148,370.866 C199.428,370.866 203.603,370.036 207.557,368.396 L309.149,326.316 C317.065,323.035 323.473,316.609 326.729,308.685 L368.632,206.707 C371.911,198.730 371.897,189.948 368.597,181.978 L326.518,80.386 C323.218,72.423 317.023,66.206 309.071,62.882 L207.303,20.331 C203.321,18.665 199.112,17.821 194.796,17.821 Z"/>
</g>
<path fill="url(#PSgrad_0)"
 d="M195.156,374.405 C190.686,374.405 186.320,373.542 182.185,371.845 L78.284,329.207 C69.926,325.777 63.148,319.022 59.690,310.674 L17.086,207.820 C13.630,199.477 13.643,189.914 17.122,181.582 L60.412,77.892 C63.914,69.504 70.468,62.968 78.866,59.489 L181.724,16.883 C185.891,15.159 190.289,14.283 194.799,14.283 C199.347,14.283 203.782,15.173 207.978,16.927 L311.014,60.008 C319.394,63.512 325.922,70.063 329.400,78.454 L372.002,181.312 C375.481,189.709 375.493,198.965 372.039,207.372 L329.615,310.617 C326.184,318.969 319.430,325.741 311.088,329.197 L208.231,371.803 C204.065,373.530 199.666,374.405 195.156,374.405 ZM194.796,17.821 C190.517,17.821 186.342,18.651 182.389,20.290 L80.795,62.371 C72.826,65.673 66.607,71.874 63.283,79.834 L20.525,182.248 C17.224,190.156 17.212,199.231 20.491,207.147 L62.572,308.736 C65.853,316.658 72.285,323.069 80.217,326.324 L182.839,368.438 C186.764,370.047 190.907,370.866 195.148,370.866 C199.428,370.866 203.603,370.036 207.557,368.396 L309.149,326.316 C317.065,323.035 323.473,316.609 326.729,308.685 L368.632,206.707 C371.911,198.730 371.897,189.948 368.597,181.978 L326.518,80.386 C323.218,72.423 317.023,66.206 309.071,62.882 L207.303,20.331 C203.321,18.665 199.112,17.821 194.796,17.821 Z"/>
</svg>