<svg style="position: absolute; width: 0; height: 0;" width="0" height="0" version="1.1" xmlns="http://www.w3.org/2000/svg" xmlns:xlink="http://www.w3.org/1999/xlink">
	<defs>
		<symbol id="icon_google" viewBox="0 0 32 32">
<title>google</title>
<path d="M10.181 14.294v3.494h5.775c-0.231 1.5-1.744 4.394-5.775 4.394-3.475 0-6.313-2.881-6.313-6.431s2.838-6.431 6.313-6.431c1.981 0 3.3 0.844 4.056 1.569l2.762-2.662c-1.775-1.656-4.075-2.662-6.819-2.662-5.631 0.006-10.181 4.556-10.181 10.188s4.55 10.181 10.181 10.181c5.875 0 9.775-4.131 9.775-9.95 0-0.669-0.075-1.181-0.163-1.688h-9.613z"></path>
<path d="M32 14h-3v-3h-3v3h-3v3h3v3h3v-3h3z"></path>
</symbol>

<symbol id="icon_linkedin" viewBox="0 0 32 32">
<title>linkedin</title>
<path d="M12 12h5.535v2.837h0.079c0.77-1.381 2.655-2.837 5.464-2.837 5.842 0 6.922 3.637 6.922 8.367v9.633h-5.769v-8.54c0-2.037-0.042-4.657-3.001-4.657-3.005 0-3.463 2.218-3.463 4.509v8.688h-5.767v-18z"></path>
<path d="M2 12h6v18h-6v-18z"></path>
<path d="M8 7c0 1.657-1.343 3-3 3s-3-1.343-3-3c0-1.657 1.343-3 3-3s3 1.343 3 3z"></path>
</symbol>

		<symbol id="icon_island" viewBox="0 0 22 24">
			<title>island</title>
			<path  d="M20.877 8.526h-1.577c-0.395 0-0.715-0.32-0.715-0.714s0.32-0.715 0.715-0.715h1.577c0.394 0 0.714 0.32 0.714 0.715s-0.32 0.714-0.714 0.714zM18.214 4.478c-0.14 0.14-0.322 0.209-0.506 0.209s-0.366-0.069-0.505-0.209c-0.279-0.279-0.28-0.731-0.001-1.011l1.115-1.114c0.279-0.279 0.731-0.279 1.011 0s0.279 0.731 0 1.011l-1.114 1.114zM13.869 11.165c-1.849 0-3.352-1.504-3.352-3.353s1.504-3.353 3.352-3.353 3.353 1.505 3.353 3.353c0 1.849-1.504 3.353-3.353 3.353zM13.869 5.889c-1.060 0-1.923 0.862-1.923 1.923s0.863 1.923 1.923 1.923c1.061 0 1.923-0.861 1.923-1.923s-0.862-1.923-1.923-1.923zM13.869 3.096c-0.394 0-0.715-0.32-0.715-0.715v-1.576c0-0.395 0.32-0.715 0.715-0.715s0.715 0.32 0.715 0.715v1.576c0 0.395-0.32 0.715-0.715 0.715zM10.029 4.687c-0.183 0-0.366-0.070-0.506-0.21l-1.115-1.114c-0.279-0.279-0.279-0.731 0-1.011s0.731-0.279 1.011 0l1.115 1.114c0.279 0.28 0.279 0.732 0 1.011-0.139 0.14-0.322 0.21-0.505 0.21zM9.153 7.812c0 0.394-0.32 0.714-0.715 0.714h-1.576c-0.395 0-0.715-0.32-0.715-0.714s0.32-0.715 0.715-0.715h1.576c0.395 0 0.715 0.32 0.715 0.715zM13.155 14.819v-1.577c0-0.394 0.32-0.714 0.715-0.714s0.715 0.32 0.715 0.714v1.577c0 0.394-0.32 0.715-0.715 0.715s-0.715-0.32-0.715-0.715zM18.319 13.273l-1.114-1.115c-0.279-0.279-0.279-0.731-0.001-1.011s0.732-0.279 1.011 0l1.115 1.115c0.279 0.279 0.279 0.731 0 1.011-0.139 0.139-0.322 0.209-0.505 0.209s-0.366-0.070-0.506-0.209zM7.665 11.771c1.012 0.137 2.513 0.668 3.918 2.419 0.247 0.308 0.198 0.758-0.11 1.004-0.132 0.106-0.29 0.157-0.447 0.157-0.209 0-0.417-0.092-0.558-0.267-0.983-1.225-1.985-1.701-2.773-1.862 0.838 1.071 1.671 2.677 0.978 4.331-0.115 0.274-0.38 0.439-0.659 0.439-0.092 0-0.185-0.018-0.275-0.055-0.364-0.153-0.536-0.571-0.383-0.935 0.527-1.26-0.505-2.645-1.216-3.399-0.304 0.529-0.714 1.325-1.059 2.286-0.803 2.239-0.904 4.303-0.302 6.14 0.374 0.11 0.815 0.181 1.444 0.181 1.121 0 1.647-0.227 2.255-0.491 0.658-0.285 1.405-0.608 2.823-0.608s2.164 0.323 2.823 0.608c0.608 0.263 1.134 0.491 2.255 0.491s1.647-0.227 2.255-0.491c0.518-0.224 1.091-0.411 2-0.529 0.266-0.034 0.747 0.098 0.74 0.609-0.008 0.692-0.678 0.793-0.632 0.787-0.664 0.079-1.078 0.243-1.541 0.443-0.658 0.285-1.405 0.609-2.823 0.609s-2.164-0.323-2.823-0.609c-0.608-0.263-1.134-0.491-2.255-0.491s-1.647 0.228-2.255 0.491c-0.658 0.285-1.405 0.609-2.823 0.609s-2.164-0.323-2.823-0.608c-0.608-0.263-1.134-0.491-2.255-0.491-0.394 0-0.714-0.32-0.714-0.714s0.32-0.715 0.714-0.715c0.876 0 1.496 0.123 1.997 0.285-0.359-1.863-0.155-3.921 0.608-6.030 0.4-1.103 0.87-2.001 1.21-2.579-0.808-0.294-2.216-0.561-3.486 0.436-0.13 0.103-0.286 0.153-0.441 0.153-0.212 0-0.422-0.094-0.562-0.273-0.244-0.31-0.19-0.76 0.121-1.003 1.111-0.873 2.468-1.188 3.924-0.909 0.155 0.031 0.304 0.065 0.445 0.104-0.035-0.072-0.075-0.145-0.118-0.217-0.564-0.937-1.577-1.496-3.011-1.664-0.392-0.045-0.673-0.401-0.628-0.792 0.046-0.393 0.4-0.673 0.793-0.628 2.411 0.28 3.569 1.472 4.116 2.422 0.28 0.488 0.43 0.957 0.51 1.326 0.295-0.023 0.647-0.023 1.043 0.030z"></path>
		</symbol>

		<symbol id="icon_flag" viewBox="0 0 20 24">
			<title>flag</title>
				<path  d="M17.59 8.131l2.509 3.543c0.148 0.148 0.148 0.442 0.147 0.59s-0.147 0.296-0.295 0.443c0 0-2.362 1.287-5.166 1.328-2.479 0.036-3.713-0.831-4.253-1.328 0 0-1.022-1.193-3.166-1.181-1.919 0.011-3.047 0.738-3.785 1.034v7.232h1.033c0.443 0 0.738 0.295 0.738 0.737s-0.295 0.738-0.738 0.738h-3.69c-0.443 0-0.738-0.295-0.738-0.738s0.295-0.737 0.738-0.737h1.181v-17.416c0-0.148 0.148-0.442 0.295-0.59 0 0 2.014-1.388 4.818-1.328 2.096 0.045 2.942 0.523 3.905 1.328 0 0 1.005 1.18 3.514 1.18s4.428-1.18 4.428-1.18c0.295-0.148 0.59 0 0.885 0.148 0.148 0.295 0.295 0.59 0.148 0.885l-2.509 5.313zM14.638 4.442c-2.804 0-3.995-1.149-4.252-1.328 0 0-1.588-1.217-3.167-1.181-1.918 0.044-2.829 0.738-3.567 1.033v7.97c1.033-0.443 1.943-0.886 3.567-0.886 2.804 0 3.058 0.645 3.905 1.329 0 0 1.005 1.181 3.514 1.181 1.624 0 2.952-0.443 3.543-0.738l-2.214-3.247c-0.148-0.147-0.148-0.443 0-0.738l1.919-3.985c-0.886 0.295-1.919 0.591-3.247 0.591zM0.938 22.508h8.708c0.443 0 0.738 0.295 0.738 0.738 0 0.442-0.443 0.738-0.738 0.738h-8.708c-0.442 0-0.738-0.295-0.738-0.738 0-0.443 0.295-0.738 0.738-0.738z"></path>
			</symbol>

			<symbol id="icon_microphone" viewBox="0 0 16 24">
				<title>microphone</title>
				<path  d="M15.452 14.612c-0.405 0.957-0.984 1.817-1.721 2.554s-1.597 1.317-2.553 1.722c-0.726 0.307-1.485 0.503-2.265 0.586v2.737h1.963c0.476 0 0.862 0.386 0.862 0.862s-0.386 0.862-0.862 0.862h-5.649c-0.476 0-0.862-0.386-0.862-0.862s0.386-0.862 0.862-0.862h1.963v-2.737c-0.78-0.083-1.539-0.279-2.265-0.586-0.957-0.405-1.816-0.985-2.553-1.722s-1.316-1.597-1.721-2.554c-0.419-0.991-0.631-2.044-0.631-3.128v-0.517c0-0.476 0.386-0.863 0.862-0.863s0.862 0.387 0.862 0.863v0.517c0 1.686 0.656 3.271 1.847 4.464 1.192 1.192 2.776 1.849 4.461 1.849s3.27-0.657 4.461-1.849c1.192-1.193 1.848-2.778 1.848-4.464v-0.517c0-0.476 0.386-0.863 0.861-0.863s0.862 0.387 0.862 0.863v0.517c0 1.085-0.212 2.137-0.631 3.128zM11.344 14.956c-0.393 0.393-0.851 0.702-1.361 0.918-0.53 0.224-1.091 0.338-1.669 0.338h-0.528c-0.578 0-1.139-0.113-1.669-0.338-0.51-0.216-0.968-0.524-1.361-0.918s-0.702-0.851-0.917-1.362c-0.224-0.53-0.338-1.091-0.338-1.669v-7.377c0-0.578 0.113-1.139 0.338-1.669 0.215-0.511 0.524-0.969 0.917-1.362s0.851-0.702 1.361-0.918c0.53-0.224 1.091-0.338 1.669-0.338h0.528c0.578 0 1.139 0.114 1.669 0.338 0.51 0.215 0.968 0.525 1.361 0.918s0.702 0.851 0.917 1.362c0.224 0.53 0.338 1.091 0.338 1.669v7.377c0 0.578-0.113 1.139-0.338 1.669-0.215 0.511-0.524 0.969-0.917 1.362zM10.875 4.547c0-1.414-1.146-2.562-2.561-2.562h-0.528c-1.414 0-2.561 1.147-2.561 2.562v7.377c0 1.415 1.146 2.562 2.561 2.562h0.528c1.414 0 2.561-1.147 2.561-2.562v-7.377z"></path>
			</symbol>

			<symbol id="icon_book" viewBox="0 0 20 24">
				<title>book</title>
				<path  d="M18.686 0.492h-15.391c-1.799 0.001-3.263 1.465-3.263 3.263v16.505c0 1.799 1.463 3.263 3.263 3.263h15.391c0.405 0 0.733-0.328 0.733-0.733v-21.566c0-0.404-0.328-0.733-0.733-0.733zM7.023 1.959v3.724l-0.235-0.236c-0.137-0.137-0.324-0.214-0.518-0.214s-0.381 0.077-0.519 0.214l-0.235 0.235v-3.724h1.508zM3.296 1.959h0.754v5.493c0 0.405 0.328 0.734 0.734 0.734 0.195 0 0.381-0.078 0.518-0.215l0.968-0.969 0.968 0.969c0.137 0.137 0.324 0.215 0.519 0.215v0c0.405 0 0.733-0.329 0.733-0.734v-5.493h9.464v15.038h-14.658c-0.663 0.001-1.281 0.2-1.797 0.542v-13.783c0-0.99 0.806-1.797 1.797-1.797zM3.296 22.058c-0.991-0.001-1.797-0.806-1.797-1.797s0.806-1.796 1.797-1.797h14.658v1.064h-14.658c-0.405 0-0.733 0.328-0.733 0.733s0.328 0.733 0.733 0.733h14.658v1.064h-14.658z"></path>
			</symbol>

			<symbol id="icon_calendar" viewBox="0 0 23 24">
				<title>calendar</title>
				<path d="M17.904 20.961h-12.117c-1.183 0-2.146-0.937-2.146-2.089v-11.799c0-1.151 0.963-2.089 2.146-2.089h0.707v-0.589c0-0.746 0.604-1.352 1.348-1.352s1.348 0.606 1.348 1.352v0.589h1.384v-0.589c0-0.746 0.604-1.352 1.348-1.352s1.348 0.606 1.348 1.352v0.589h1.384v-0.589c0-0.746 0.604-1.352 1.348-1.352s1.348 0.606 1.348 1.352v0.589h0.554c1.184 0 2.146 0.937 2.146 2.088v11.799c0 1.151-0.962 2.089-2.146 2.089zM8.434 4.395c0-0.339-0.266-0.614-0.591-0.614s-0.591 0.275-0.591 0.614v2.407c0 0.338 0.265 0.614 0.591 0.614s0.591-0.276 0.591-0.614v-2.407zM12.513 4.395c0-0.339-0.265-0.614-0.591-0.614s-0.59 0.275-0.59 0.614v2.407c0 0.338 0.265 0.614 0.59 0.614s0.591-0.276 0.591-0.614v-2.407zM16.592 4.395c0-0.339-0.265-0.614-0.59-0.614s-0.591 0.275-0.591 0.614v2.407c0 0.338 0.265 0.614 0.591 0.614s0.59-0.276 0.59-0.614v-2.407zM18.787 8.057h-13.884v10.816c0 0.474 0.396 0.86 0.883 0.86h12.117c0.487 0 0.883-0.386 0.883-0.86v-10.816zM15.357 15.649h2.32v2.009h-2.32v-2.009zM15.357 12.967h2.32v2.007h-2.32v-2.007zM15.357 10.283h2.32v2.010h-2.32v-2.010zM12.26 15.649h2.319v2.009h-2.319v-2.009zM12.26 12.967h2.319v2.007h-2.319v-2.007zM12.26 10.283h2.319v2.010h-2.319v-2.010zM9.161 15.649h2.321v2.009h-2.321v-2.009zM9.161 12.967h2.321v2.007h-2.321v-2.007zM9.161 10.283h2.321v2.010h-2.321v-2.010zM6.064 15.649h2.32v2.009h-2.32v-2.009zM6.064 12.967h2.32v2.007h-2.32v-2.007zM6.064 10.283h2.32v2.010h-2.32v-2.010z"></path>
			</symbol>

			<symbol id="icon_burger" viewBox="0 0 24 24">
				<title>burger</title>
				<path d="M3 6h18v2.016h-18v-2.016zM3 12.984v-1.969h18v1.969h-18zM3 18v-2.016h18v2.016h-18z"></path>
			</symbol>

			<symbol id="icon_instagram" viewBox="0 0 32 32">
				<title>instagram</title>
				<path d="M16 2.881c4.275 0 4.781 0.019 6.462 0.094 1.563 0.069 2.406 0.331 2.969 0.55 0.744 0.288 1.281 0.638 1.837 1.194 0.563 0.563 0.906 1.094 1.2 1.838 0.219 0.563 0.481 1.412 0.55 2.969 0.075 1.688 0.094 2.194 0.094 6.463s-0.019 4.781-0.094 6.463c-0.069 1.563-0.331 2.406-0.55 2.969-0.288 0.744-0.637 1.281-1.194 1.837-0.563 0.563-1.094 0.906-1.837 1.2-0.563 0.219-1.413 0.481-2.969 0.55-1.688 0.075-2.194 0.094-6.463 0.094s-4.781-0.019-6.463-0.094c-1.563-0.069-2.406-0.331-2.969-0.55-0.744-0.288-1.281-0.637-1.838-1.194-0.563-0.563-0.906-1.094-1.2-1.837-0.219-0.563-0.481-1.413-0.55-2.969-0.075-1.688-0.094-2.194-0.094-6.463s0.019-4.781 0.094-6.463c0.069-1.563 0.331-2.406 0.55-2.969 0.288-0.744 0.638-1.281 1.194-1.838 0.563-0.563 1.094-0.906 1.838-1.2 0.563-0.219 1.412-0.481 2.969-0.55 1.681-0.075 2.188-0.094 6.463-0.094zM16 0c-4.344 0-4.887 0.019-6.594 0.094-1.7 0.075-2.869 0.35-3.881 0.744-1.056 0.412-1.95 0.956-2.837 1.85-0.894 0.888-1.438 1.781-1.85 2.831-0.394 1.019-0.669 2.181-0.744 3.881-0.075 1.713-0.094 2.256-0.094 6.6s0.019 4.887 0.094 6.594c0.075 1.7 0.35 2.869 0.744 3.881 0.413 1.056 0.956 1.95 1.85 2.837 0.887 0.887 1.781 1.438 2.831 1.844 1.019 0.394 2.181 0.669 3.881 0.744 1.706 0.075 2.25 0.094 6.594 0.094s4.888-0.019 6.594-0.094c1.7-0.075 2.869-0.35 3.881-0.744 1.050-0.406 1.944-0.956 2.831-1.844s1.438-1.781 1.844-2.831c0.394-1.019 0.669-2.181 0.744-3.881 0.075-1.706 0.094-2.25 0.094-6.594s-0.019-4.887-0.094-6.594c-0.075-1.7-0.35-2.869-0.744-3.881-0.394-1.063-0.938-1.956-1.831-2.844-0.887-0.887-1.781-1.438-2.831-1.844-1.019-0.394-2.181-0.669-3.881-0.744-1.712-0.081-2.256-0.1-6.6-0.1v0z"></path>
				<path d="M16 7.781c-4.537 0-8.219 3.681-8.219 8.219s3.681 8.219 8.219 8.219 8.219-3.681 8.219-8.219c0-4.537-3.681-8.219-8.219-8.219zM16 21.331c-2.944 0-5.331-2.387-5.331-5.331s2.387-5.331 5.331-5.331c2.944 0 5.331 2.387 5.331 5.331s-2.387 5.331-5.331 5.331z"></path>
				<path d="M26.462 7.456c0 1.060-0.859 1.919-1.919 1.919s-1.919-0.859-1.919-1.919c0-1.060 0.859-1.919 1.919-1.919s1.919 0.859 1.919 1.919z"></path>
			</symbol>

			<symbol id="icon_facebook" viewBox="0 0 32 32">
				<title>facebook</title>
				<path d="M19 6h5v-6h-5c-3.86 0-7 3.14-7 7v3h-4v6h4v16h6v-16h5l1-6h-6v-3c0-0.542 0.458-1 1-1z"></path>
			</symbol>

			<symbol id="icon_twitter" viewBox="0 0 32 32">
				<title>twitter</title>
				<path d="M32 7.075c-1.175 0.525-2.444 0.875-3.769 1.031 1.356-0.813 2.394-2.1 2.887-3.631-1.269 0.75-2.675 1.3-4.169 1.594-1.2-1.275-2.906-2.069-4.794-2.069-3.625 0-6.563 2.938-6.563 6.563 0 0.512 0.056 1.012 0.169 1.494-5.456-0.275-10.294-2.888-13.531-6.862-0.563 0.969-0.887 2.1-0.887 3.3 0 2.275 1.156 4.287 2.919 5.463-1.075-0.031-2.087-0.331-2.975-0.819 0 0.025 0 0.056 0 0.081 0 3.181 2.263 5.838 5.269 6.437-0.55 0.15-1.131 0.231-1.731 0.231-0.425 0-0.831-0.044-1.237-0.119 0.838 2.606 3.263 4.506 6.131 4.563-2.25 1.762-5.075 2.813-8.156 2.813-0.531 0-1.050-0.031-1.569-0.094 2.913 1.869 6.362 2.95 10.069 2.95 12.075 0 18.681-10.006 18.681-18.681 0-0.287-0.006-0.569-0.019-0.85 1.281-0.919 2.394-2.075 3.275-3.394z"></path>
			</symbol>

			<symbol id="icon_youtube" viewBox="0 0 32 32">
				<title>youtube</title>
				<path d="M31.681 9.6c0 0-0.313-2.206-1.275-3.175-1.219-1.275-2.581-1.281-3.206-1.356-4.475-0.325-11.194-0.325-11.194-0.325h-0.012c0 0-6.719 0-11.194 0.325-0.625 0.075-1.987 0.081-3.206 1.356-0.963 0.969-1.269 3.175-1.269 3.175s-0.319 2.588-0.319 5.181v2.425c0 2.587 0.319 5.181 0.319 5.181s0.313 2.206 1.269 3.175c1.219 1.275 2.819 1.231 3.531 1.369 2.563 0.244 10.881 0.319 10.881 0.319s6.725-0.012 11.2-0.331c0.625-0.075 1.988-0.081 3.206-1.356 0.962-0.969 1.275-3.175 1.275-3.175s0.319-2.587 0.319-5.181v-2.425c-0.006-2.588-0.325-5.181-0.325-5.181zM12.694 20.15v-8.994l8.644 4.513-8.644 4.481z"></path>
			</symbol>

		</defs>
	</svg>
