<svg style="position: absolute; width: 0; height: 0;" width="0" height="0" version="1.1" xmlns="http://www.w3.org/2000/svg" xmlns:xlink="http://www.w3.org/1999/xlink">
	<defs>

		<symbol id="icon_assignment" viewBox="0 0 24 24">
<title>assignment</title>
<path d="M18 18.984v-1.406c0-2.016-3.984-3.094-6-3.094s-6 1.078-6 3.094v1.406h12zM12 6.984c-1.641 0-3 1.359-3 3s1.359 3 3 3 3-1.359 3-3-1.359-3-3-3zM12 3c-0.563 0-0.984 0.422-0.984 0.984s0.422 1.031 0.984 1.031 0.984-0.469 0.984-1.031-0.422-0.984-0.984-0.984zM18.984 3c1.078 0 2.016 0.938 2.016 2.016v13.969c0 1.078-0.938 2.016-2.016 2.016h-13.969c-1.078 0-2.016-0.938-2.016-2.016v-13.969c0-1.078 0.938-2.016 2.016-2.016h4.172c0.422-1.172 1.5-2.016 2.813-2.016s2.391 0.844 2.813 2.016h4.172z"></path>
</symbol>

<symbol id="icon_breakfast" viewBox="0 0 24 24">
<title>breakfast</title>
<path d="M3.984 18.984h16.031v2.016h-16.031v-2.016zM20.016 8.016v-3h-2.016v3h2.016zM20.016 3c1.125 0 1.969 0.891 1.969 2.016v3c0 1.078-0.844 1.969-1.969 1.969h-2.016v3c0 2.203-1.781 4.031-3.984 4.031h-6c-2.203 0-4.031-1.828-4.031-4.031v-9.984h16.031z"></path>
</symbol>

<symbol id="icon_restaurant" viewBox="0 0 24 24">
<title>restaurant</title>
<path d="M15.984 6c0-1.781 2.25-3.984 5.016-3.984v19.969h-2.484v-7.969h-2.531v-8.016zM11.016 9v-6.984h1.969v6.984c0 2.109-1.641 3.844-3.75 3.984v9h-2.484v-9c-2.109-0.141-3.75-1.875-3.75-3.984v-6.984h2.016v6.984h1.969v-6.984h2.016v6.984h2.016z"></path>
</symbol>

<symbol id="icon_cake" viewBox="0 0 24 24">
<title>cake</title>
<path d="M18 9c1.641 0 3 1.359 3 3v1.547c0 1.078-0.891 1.969-1.969 1.969-0.516 0-0.984-0.188-1.359-0.563l-2.156-2.156-2.156 2.156c-0.75 0.75-2.016 0.75-2.766 0l-2.109-2.156-2.156 2.156c-0.375 0.375-0.844 0.563-1.359 0.563-1.078 0-1.969-0.891-1.969-1.969v-1.547c0-1.641 1.359-3 3-3h5.016v-2.016h1.969v2.016h5.016zM16.594 15.984c0.656 0.656 1.5 1.031 2.438 1.031 0.75 0 1.406-0.234 1.969-0.609v4.594c0 0.563-0.422 0.984-0.984 0.984h-16.031c-0.563 0-0.984-0.422-0.984-0.984v-4.594c0.563 0.375 1.219 0.609 1.969 0.609 0.938 0 1.781-0.375 2.438-1.031l1.078-1.078 1.078 1.078c1.313 1.313 3.563 1.313 4.875 0l1.078-1.078zM12 6c-1.078 0-2.016-0.938-2.016-2.016 0-0.375 0.141-0.75 0.328-1.031l1.688-2.953 1.688 2.953c0.188 0.281 0.328 0.656 0.328 1.031 0 1.078-0.891 2.016-2.016 2.016z"></path>
</symbol>

<symbol id="icon_circle" viewBox="0 0 24 24">
<title>circle</title>
<path d="M2.016 12c0-5.531 4.453-9.984 9.984-9.984s9.984 4.453 9.984 9.984-4.453 9.984-9.984 9.984-9.984-4.453-9.984-9.984z"></path>
</symbol>

<symbol id="icon_star" viewBox="0 0 24 24">
<title>star</title>
<path d="M12 17.25l-6.188 3.75 1.641-7.031-5.438-4.734 7.172-0.609 2.813-6.609 2.813 6.609 7.172 0.609-5.438 4.734 1.641 7.031z"></path>
</symbol>

		<symbol id="icon_print" viewBox="0 0 24 24">
<title>print</title>
<path d="M18 3v3.984h-12v-3.984h12zM18.984 12c0.563 0 1.031-0.422 1.031-0.984s-0.469-1.031-1.031-1.031-0.984 0.469-0.984 1.031 0.422 0.984 0.984 0.984zM15.984 18.984v-4.969h-7.969v4.969h7.969zM18.984 8.016c1.641 0 3 1.359 3 3v6h-3.984v3.984h-12v-3.984h-3.984v-6c0-1.641 1.359-3 3-3h13.969z"></path>
</symbol>

		<symbol id="icon_close" viewBox="0 0 24 24">
			<title>close</title>
			<path d="M18.984 6.422l-5.578 5.578 5.578 5.578-1.406 1.406-5.578-5.578-5.578 5.578-1.406-1.406 5.578-5.578-5.578-5.578 1.406-1.406 5.578 5.578 5.578-5.578z"></path>
		</symbol>

		<symbol id="icon_reward" viewBox="0 0 17 24">
			<title>reward</title>
			<path  d="M16.378 20.94l-3.184-8.329 2.425-1.156c0.379-0.127 0.506-0.506 0.379-0.758l-1.012-2.783 1.012-2.782c0.126-0.253-0.127-0.633-0.379-0.759l-2.655-1.265-1.264-2.656c-0.127-0.379-0.506-0.506-0.759-0.379l-2.782 1.012-2.782-1.012c-0.253-0.126-0.632 0.127-0.759 0.379l-1.264 2.656-2.655 1.265c-0.379 0.126-0.506 0.506-0.379 0.759l1.012 2.782-1.012 2.783c-0.126 0.253 0.127 0.632 0.379 0.758l2.39 1.138-3.022 8.221c0 0.253 0 0.505 0.127 0.632 0.126 0.253 0.379 0.253 0.632 0.253l3.034-0.506 1.896 2.402c0.127 0.127 0.253 0.253 0.506 0.253h0.126c0.253 0 0.379-0.126 0.506-0.379l1.281-3.483 1.374 3.61c0.126 0.253 0.253 0.379 0.506 0.379h0.127c0.253 0 0.379-0.127 0.506-0.253l1.896-2.403 3.034 0.506c0.253 0 0.506-0.126 0.632-0.253s0.253-0.379 0.127-0.632zM1.837 5.258l2.402-1.138c0.126 0 0.253-0.127 0.253-0.253l1.138-2.402 2.402 0.885c0.127 0 0.253 0 0.379 0l2.402-0.885 1.138 2.402c0 0.127 0.127 0.253 0.253 0.253l2.402 1.138-0.885 2.402c0 0.127 0 0.253 0 0.38l0.885 2.403-2.402 1.138c-0.127 0-0.253 0.127-0.253 0.252l-1.138 2.403-2.402-0.886c-0.127 0-0.127 0-0.253 0s-0.127 0-0.127 0l-2.402 0.886-1.138-2.403c0-0.126-0.127-0.252-0.253-0.252l-2.402-1.138 0.885-2.403c0-0.127 0-0.253 0-0.38l-0.885-2.402zM6.136 22.078l-1.517-1.897c-0.126-0.253-0.379-0.253-0.632-0.253l-2.402 0.379 2.342-6.388 0.693 1.456c0.127 0.379 0.506 0.506 0.759 0.379l2.782-1.012 0.588 0.214-2.611 7.121zM12.331 19.802c-0.253 0-0.506 0.127-0.632 0.253l-1.517 1.897-1.357-3.733 1.048-2.852 1.067 0.388c0.127 0 0.127 0 0.253 0s0.379-0.127 0.506-0.379l0.719-1.51 2.315 6.315-2.402-0.379z"></path>
		</symbol>

		<symbol id="icon_pin" viewBox="0 0 24 24">
			<title>pin</title>
			<path  d="M23.18 7.425l-6.653-6.652c-0.868-1.012-2.459-1.012-3.471 0l-0.289 0.289c-0.434 0.434-0.723 1.156-0.723 1.736s0.289 1.301 0.723 1.735l-5.785 5.785c-2.169-1.012-4.917-0.578-6.653 1.157-0.289 0.29-0.289 0.724 0 1.013l4.917 4.917-4.338 4.339c-0.289 0.289-0.289 0.724 0 1.013 0.144 0.144 0.289 0.144 0.578 0.144s0.434 0 0.578-0.144l4.266-4.267 4.99 4.99c0.144 0 0.434 0.144 0.578 0.144s0.289 0 0.578 0c1.735-1.735 2.169-4.483 1.157-6.652l5.785-5.785c0.868 1.013 2.459 1.013 3.471 0l0.289-0.289c0.434-0.434 0.723-1.157 0.723-1.736s-0.289-1.302-0.723-1.736zM22.167 9.739l-0.289 0.29c-0.289 0.433-1.012 0.433-1.446 0l-0.578-0.579c-0.289-0.289-0.723-0.289-1.012 0l-6.797 6.797c-0.289 0.289-0.289 0.578-0.145 0.868 1.012 1.447 0.868 3.327-0.144 4.773l-9.835-9.835c1.446-1.012 3.326-1.157 4.773-0.145 0.289 0.145 0.578 0.145 0.868-0.144l6.797-6.798c0.289-0.289 0.289-0.723 0-1.012l-0.578-0.578c-0.144-0.144-0.289-0.434-0.289-0.723s0.145-0.579 0.289-0.723l0.289-0.289c0.289-0.434 1.012-0.434 1.446 0l6.653 6.653c0.145 0.144 0.289 0.434 0.289 0.723s-0.144 0.578-0.289 0.722z"></path>
		</symbol>

		<symbol id="icon_chevron_right" viewBox="0 0 20 20">
			<title>chevron_right</title>
			<path d="M13.25 10l-7.141-7.42c-0.268-0.27-0.268-0.707 0-0.979 0.268-0.27 0.701-0.27 0.969 0l7.83 7.908c0.268 0.271 0.268 0.709 0 0.979l-7.83 7.908c-0.268 0.271-0.701 0.27-0.969 0s-0.268-0.707 0-0.979l7.141-7.417z"></path>
		</symbol>

		<symbol id="icon_dolphin" viewBox="0 0 28 24">
			<title>dolphin</title>
			<path d="M27.647 23.65c-0.16-0.618-2.119-1.493-2.119-1.493-0.775 0.088-1.23-0.487-1.23-0.487-0.416-0.467-0.663 0.139-0.663 0.139-0.375 0.684-1.938 1.080-1.938 1.080-1.046 1.316-1.147 0.953-1.147 0.953-0.448-1.16 2.136-5.192 2.136-5.192-3.305-6.255-13.219-11.048-13.219-11.048 0.085-0.368 0.867-1.040 0.867-1.040l-0.154-0.344c-1.203-0.067-2.31 4.702-2.31 4.702-1.314-0.978-1.18-4.488-1.18-4.488-0.75-0.533-3.395-1.32-4.595-1.39-0.87-0.050-1.237-0.161-1.47-0.464-0.91-1.184 2.093-1.683 2.093-1.683 2.878-5.024 10.864-1.361 10.864-1.361 2.384-1.909 4.544-1.166 4.544-1.166 1.637 0.498 0.642 0.664 0.642 0.664-1.71 0.508-1.854 2.519-1.854 2.519 7.414 5.518 6.997 13.415 6.997 13.415 0.044 0.703-0.008 1.344-0.008 1.344 2.6 1.538 3.568 3.811 3.568 3.811 0.697 1.685 0.177 1.53 0.177 1.53zM9.262 15.084c-4.141 1.945-7.5 0.649-7.5 0.823 0 0.735 3.357 2.77 7.5 0.823 4.142-1.945 7.5-0.649 7.5-0.823 0-0.736-3.358-2.768-7.5-0.823zM9.262 18.611c-4.141 1.946-7.5 0.649-7.5 0.823 0 0.736 3.357 2.769 7.5 0.824s7.5-0.65 7.5-0.824c0-0.735-3.358-2.769-7.5-0.823z"></path>
		</symbol>

		<symbol id="icon_mauchle" viewBox="0 0 37 24">
			<title>mauchle</title>
			<path d="M35.75 23.558c-0.641-0.038-2.654 0.425-2.801-0.169-0.147-0.592 1.425-4.001 1.867-4.051s1.226 1.915 1.545 2.489c0.322 0.574 0.028 1.768-0.611 1.73zM29.459 22.847c-0.835-0.321 2.507-7.584 3.097-7.313 0.589 0.272 1.424 2.275 1.571 2.817 0.149 0.543-1.571 4.618-1.867 4.743-0.294 0.124-1.965 0.074-2.801-0.247zM28.329 22.45c-0.638 0.123-4.243 0.053-5.156-0.582-0.911-0.634 4.224-12.509 5.451-12.361 1.229 0.149 2.702 3.535 3.047 4.459 0.343 0.925-2.702 8.359-3.342 8.483zM21.123 21.517c-1.087 0.218-2.167 0.181-3.767-0.875-3.545-2.34-2.682-6.333-5.486-10.886-3.299-5.357-9.453-6.79-8.157-7.509 3.478-1.929 13.367-2.658 16.659-1.755 4.938 1.354 6.231 4.724 6.606 5.461 0.574 1.128-0.81 5.365-2.286 9.114-1.364 3.472-2.422 6.223-3.57 6.451zM5.35 5.391c-0.207 1.383-2.763 3.223-3.177 6.8-0.322 2.775 0.605 3.821 2.948 4.215 4.028 0.679 5.823-2.168 7.343-1.821 0.991 0.227 2.577 4.389 1.667 4.755-2.253 0.904-7.732-0.3-9.827-1.255-2.096-0.955-4.228-2.559-4.226-5.895 0.001-2.274 1.991-7.57 3.532-8.201 0.597-0.244 1.83 0.801 1.74 1.401z"></path>
		</symbol>

		<symbol id="icon_shrim" viewBox="0 0 28 24">
			<title>shrim</title>
			<path d="M26.733 6.605h-7.871c-0.111 0.173-0.226 0.343-0.347 0.508h5.051c0.444 0 0.804 0.36 0.804 0.804s-0.36 0.804-0.804 0.804h-6.371c-0.044 0-0.086-0.004-0.127-0.011-1.553 1.388-3.506 2.288-5.596 2.545 0.336 1.156 0.463 2.348 0.385 3.527 1.201-0.456 2.557-0.439 3.787 0.099l0.622 0.273-0.165 0.659c-0.233 0.927-0.721 1.769-1.414 2.435-0.334 0.321-0.704 0.59-1.1 0.805 0.36 0.269 0.689 0.588 0.976 0.955 0.592 0.758 0.957 1.661 1.056 2.611l0.071 0.675-0.654 0.183c-0.449 0.125-0.904 0.185-1.354 0.185-1.518 0-2.976-0.69-3.945-1.93-0.274-0.351-0.499-0.738-0.67-1.147-3.622-0.449-6.757-2.812-8.184-6.168-0.129-0.303-0.248-0.637-0.351-0.973h-0.002l-0.011-0.044c-0.071-0.235-0.132-0.47-0.181-0.695l0.002-0.001c-0.553-2.337-0.281-4.761 0.777-6.904l-0-0 0.007-0.013c0.064-0.129 0.129-0.257 0.199-0.384l0.018 0.009 0.009-0.016c1.829-3.163 5.231-5.128 8.88-5.128 3.491 0 6.756 1.8 8.633 4.727h7.871c0.444 0 0.804 0.36 0.804 0.804s-0.36 0.804-0.804 0.804zM14.28 16.13c-0.97-0.19-1.979 0.052-2.765 0.676-0.118 0.427-0.263 0.848-0.437 1.261 0.912 0.021 1.815-0.323 2.496-0.977 0.291-0.28 0.529-0.605 0.707-0.96zM11.003 20.742c0.695 0.89 1.763 1.364 2.857 1.307-0.126-0.376-0.316-0.732-0.565-1.050-0.61-0.782-1.501-1.254-2.45-1.333-0.020-0.001-0.039-0.002-0.059-0.003-0.117-0.008-0.235-0.010-0.353-0.006 0.122 0.391 0.315 0.76 0.569 1.085zM8.803 18.92c0.137-0.205 0.265-0.416 0.384-0.63 0.648-1.176 1.008-2.454 1.074-3.747-0.893 1.519-2.195 2.778-3.765 3.615 0.722 0.358 1.498 0.617 2.307 0.762zM4.89 17.13c2.297-0.897 4.056-2.818 4.754-5.17-1.756 1.27-3.874 1.95-6.027 1.95-0.411 0-0.823-0.025-1.234-0.076 0.563 1.304 1.433 2.428 2.508 3.296zM1.853 12.12c2.131 0.445 4.343 0.063 6.187-1.027-2.308-0.508-4.391-1.807-5.865-3.674-0.54 1.5-0.655 3.12-0.322 4.701zM10.229 1.878c-2.919 0-5.651 1.492-7.24 3.923 1.589 2.431 4.321 3.923 7.24 3.923s5.651-1.492 7.24-3.923c-1.589-2.431-4.321-3.923-7.24-3.923zM13.837 5.213c-0.488 0-0.884-0.396-0.884-0.885s0.396-0.886 0.884-0.886c0.489 0 0.885 0.396 0.885 0.886s-0.396 0.885-0.885 0.885z"></path>
		</symbol>

		<symbol id="icon_bird" viewBox="0 0 23 24">
			<title>bird</title>
			<path d="M21.858 21.25c-0.111-0.068-0.229-0.13-0.351-0.178-0.258-0.1-0.434-0.281-0.499-0.542-0.095-0.381-0.39-0.549-0.709-0.591-0.615-0.080-0.999-0.49-1.327-0.918-0.244-0.32-0.337-0.759-0.185-1.189 0.035-0.099 0.038-0.179-0.002-0.295-0.050-0.145 0.006-0.329 0.024-0.495 0.18-1.631 0.823-3.089 1.675-4.468 0.081-0.13 0.161-0.261 0.243-0.39 0.209-0.333 0.295-0.693 0.344-1.088 0.104-0.836 0.135-1.684 0.39-2.501 0.263-0.844 0.244-1.704 0.090-2.574-0.079-0.449-0.061-0.915-0.108-1.371-0.106-1.046-0.35-2.057-0.86-2.985-0.227-0.413-0.493-0.806-0.754-1.2-0.108-0.162-0.235-0.333-0.48-0.243-0.129 0.047-0.3 0.376-0.29 0.555 0.003 0.050 0.028 0.101 0.023 0.15-0.011 0.102-0.035 0.203-0.055 0.304-0.029 0.152-0.067 0.303-0.085 0.456-0.017 0.142-0.012 0.286-0.016 0.429-0.004 0.167-0.016 0.335-0.008 0.501 0.014 0.276 0.032 0.541-0.106 0.807-0.075 0.144-0.033 0.345-0.066 0.515-0.035 0.18-0.102 0.353-0.147 0.531-0.069 0.267-0.145 0.533-0.195 0.804-0.088 0.472-0.143 0.949-0.237 1.419-0.123 0.613-0.276 1.221-0.408 1.832-0.057 0.262-0.089 0.529-0.143 0.792-0.019 0.090-0.070 0.174-0.1 0.263-0.051 0.152-0.099 0.307-0.146 0.461-0.008 0.027 0.004 0.062-0.008 0.087-0.151 0.321-0.306 0.64-0.459 0.96-0.083 0.174-0.164 0.349-0.244 0.524-0.015 0.032-0.019 0.071-0.035 0.103-0.323 0.681-0.668 1.354-0.966 2.045-0.329 0.764-0.552 1.558-0.649 2.394-0.1 0.851-0.267 1.696-0.426 2.539-0.049 0.259-0.161 0.507-0.257 0.756-0.062 0.16-0.289 0.246-0.466 0.204-0.936-0.219-1.876-0.455-2.842-0.439-0.578 0.010-1.153 0.154-1.731 0.227-1.749 0.217-3.497 0.437-5.248 0.64-1.234 0.143-2.469 0.17-3.703-0.015-0.065-0.010-0.13-0.013-0.196-0.015-0.019-0-0.038 0.015-0.105 0.044 0.094 0.066 0.151 0.134 0.221 0.152 0.309 0.078 0.622 0.147 0.935 0.208 0.262 0.052 0.532 0.069 0.79 0.138 0.592 0.16 1.18 0.096 1.774 0.027 0.496-0.058 0.995-0.103 1.493-0.116 0.189-0.005 0.377 0.113 0.571 0.143 0.21 0.032 0.427 0.032 0.641 0.037 0.244 0.007 0.489 0.002 0.734 0.004 0.261 0.004 0.528-0.023 0.783 0.022 0.412 0.072 0.817 0.19 1.224 0.291 0.406 0.1 0.811 0.206 1.218 0.305 0.287 0.071 0.575 0.134 0.864 0.198 0.041 0.009 0.094 0.014 0.128-0.003 0.158-0.083 0.245-0.025 0.28 0.158 0.183-0.055 0.348-0.105 0.513-0.156 0.013 0.020 0.026 0.039 0.038 0.058-0.7 0.47-1.387 0.96-2.102 1.404-0.721 0.447-1.543 0.642-2.375 0.798 0.004 0.035 0.007 0.069 0.011 0.104 0.186 0.028 0.379 0.104 0.555 0.074 0.431-0.074 0.853-0.198 1.279-0.301 0.085-0.020 0.156-0.061 0.242 0.048 0.047 0.059 0.204 0.048 0.309 0.039 0.261-0.022 0.52-0.071 0.781-0.090 0.164-0.011 0.33 0.012 0.496 0.019 0.064 0.003 0.144 0.028 0.191 0 0.388-0.236 0.821-0.148 1.231-0.153 0.661-0.009 1.324 0.028 1.984 0.076 0.644 0.047 1.252-0.069 1.84-0.321 0.784-0.337 1.584-0.617 2.418-0.808 0.468-0.107 0.939-0.224 1.343-0.536 0.362-0.28 0.795-0.286 1.227-0.128 0.215 0.078 0.436 0.141 0.699 0.225-0.071-0.363-0.244-0.597-0.514-0.762z"></path>
		</symbol>

		<symbol id="icon_waves" viewBox="0 0 45 24">
			<title>waves</title>
			<path d="M38.135 16.256c-0.702-0.701-1.845-0.701-2.549 0.001-1.869 1.866-4.91 1.866-6.777 0-0.704-0.704-1.848-0.704-2.551 0-1.869 1.866-4.909 1.866-6.776-0.001-0.704-0.703-1.848-0.701-2.551 0.001-1.868 1.867-4.908 1.866-6.776 0-0.704-0.702-1.847-0.704-2.551 0-0.905 0.903-2.109 1.402-3.389 1.402s-2.483-0.498-3.388-1.403c-0.584-0.584-0.584-1.529 0-2.113 0.583-0.582 1.529-0.582 2.113 0 0.681 0.682 1.869 0.682 2.55 0 1.869-1.867 4.91-1.866 6.777 0.001 0.706 0.704 1.85 0.702 2.55 0 1.866-1.868 4.906-1.868 6.777-0.002 0.703 0.704 1.846 0.704 2.55 0.001 1.868-1.867 4.908-1.866 6.777-0.001 0.704 0.705 1.848 0.704 2.552 0 1.868-1.865 4.906-1.866 6.775 0.001 0.679 0.679 1.87 0.679 2.55 0.001 0.583-0.585 1.529-0.583 2.114-0.002 0.584 0.583 0.584 1.53 0.002 2.113-1.807 1.81-4.97 1.81-6.778 0.002zM38.135 9.883c-0.702-0.701-1.845-0.702-2.549 0.001-1.869 1.866-4.91 1.866-6.777 0-0.704-0.704-1.848-0.704-2.551 0-1.869 1.867-4.909 1.866-6.776-0.001-0.704-0.703-1.848-0.701-2.551 0.001-1.868 1.868-4.908 1.866-6.776 0.001-0.704-0.703-1.847-0.704-2.551-0.001-0.905 0.904-2.109 1.402-3.389 1.402s-2.483-0.498-3.388-1.402c-0.584-0.584-0.584-1.529 0-2.114 0.583-0.583 1.529-0.583 2.113 0 0.681 0.682 1.869 0.682 2.55 0 1.869-1.867 4.91-1.866 6.777 0.002 0.706 0.703 1.85 0.702 2.55 0 1.866-1.869 4.906-1.869 6.777-0.003 0.703 0.704 1.846 0.703 2.55 0.001 1.868-1.867 4.908-1.866 6.777-0.001 0.704 0.704 1.848 0.703 2.552 0 1.868-1.865 4.906-1.866 6.775 0.001 0.679 0.678 1.87 0.679 2.55 0.002 0.583-0.585 1.529-0.584 2.114-0.003 0.584 0.583 0.584 1.531 0.002 2.114-1.807 1.809-4.97 1.809-6.778 0.001zM38.135 3.823c-0.702-0.7-1.845-0.702-2.549 0.001-1.869 1.866-4.91 1.866-6.777 0-0.704-0.704-1.848-0.704-2.551 0-1.869 1.867-4.909 1.866-6.776-0.001-0.704-0.703-1.848-0.7-2.551 0.001-1.868 1.868-4.908 1.866-6.776 0.001-0.704-0.703-1.847-0.704-2.551-0.001-0.905 0.904-2.109 1.402-3.389 1.402s-2.483-0.497-3.388-1.403c-0.584-0.583-0.584-1.529 0-2.113 0.583-0.582 1.529-0.582 2.113 0 0.681 0.681 1.869 0.681 2.55 0 1.869-1.868 4.91-1.866 6.777 0.002 0.706 0.703 1.85 0.702 2.55 0 1.866-1.869 4.906-1.869 6.777-0.003 0.703 0.705 1.846 0.704 2.55 0.002 1.868-1.868 4.908-1.866 6.777-0.002 0.704 0.705 1.848 0.704 2.552 0 1.868-1.864 4.906-1.866 6.775 0.002 0.679 0.679 1.87 0.679 2.55 0.002 0.583-0.586 1.529-0.584 2.114-0.003 0.584 0.584 0.584 1.531 0.002 2.113-1.807 1.81-4.97 1.809-6.778 0.002zM2.94 20.203c0.681 0.681 1.869 0.681 2.55 0 1.869-1.868 4.91-1.867 6.777 0 0.706 0.704 1.85 0.703 2.55 0 1.866-1.868 4.906-1.868 6.777-0.002 0.703 0.704 1.846 0.703 2.55 0.002 1.868-1.868 4.908-1.867 6.777-0.002 0.704 0.704 1.848 0.703 2.552 0 1.868-1.866 4.906-1.867 6.775 0.002 0.679 0.678 1.87 0.679 2.55 0 0.583-0.585 1.529-0.583 2.114-0.002 0.584 0.583 0.584 1.53 0.002 2.113-1.807 1.809-4.97 1.808-6.778 0-0.702-0.7-1.845-0.701-2.549 0.001-1.869 1.866-4.91 1.866-6.777 0-0.704-0.703-1.848-0.703-2.551 0-1.869 1.867-4.909 1.866-6.776-0.001-0.704-0.702-1.848-0.7-2.551 0.001-1.868 1.868-4.908 1.866-6.776 0.001-0.704-0.703-1.847-0.704-2.551-0.001-0.905 0.904-2.109 1.403-3.389 1.403s-2.483-0.497-3.388-1.404c-0.584-0.583-0.584-1.528 0-2.111 0.583-0.583 1.529-0.583 2.113 0z"></path>
		</symbol>

		<symbol id="icon_cross" viewBox="0 0 24 24">
			<title>cross</title>
			<path d="M13.911 11.040l9.105-9.102c0.405-0.408 0.405-1.068 0-1.476-0.408-0.408-1.071-0.408-1.479 0l-9.102 9.099-9.102-9.096c-0.408-0.408-1.071-0.408-1.479 0-0.408 0.405-0.408 1.065 0 1.473l9.105 9.102-9.102 9.102c-0.408 0.405-0.408 1.065 0 1.47 0.204 0.207 0.471 0.309 0.738 0.309s0.534-0.099 0.738-0.309l9.102-9.093 9.102 9.093c0.207 0.207 0.471 0.309 0.738 0.309s0.534-0.099 0.738-0.309c0.408-0.405 0.408-1.065 0-1.47l-9.102-9.102z"></path>
		</symbol>

		<symbol id="icon_play" viewBox="0 0 24 24">
			<title>play</title>
			<path d="M12 0.549c-6.389 0-11.567 5.178-11.567 11.567 0 6.388 5.179 11.567 11.567 11.567s11.567-5.179 11.567-11.567c0-6.39-5.179-11.567-11.567-11.567zM17.535 13.045l-6.899 4.746c-0.192 0.131-0.415 0.199-0.639 0.199-0.181 0-0.359-0.043-0.525-0.129-0.37-0.196-0.603-0.581-0.603-0.998v-9.493c0-0.418 0.233-0.803 0.603-0.999 0.371-0.194 0.818-0.167 1.164 0.070l6.899 4.746c0.305 0.21 0.489 0.558 0.489 0.929s-0.183 0.718-0.489 0.929z"></path>
		</symbol>

		<symbol id="icon_sandals" viewBox="0 0 23 24">
			<title>sandals</title>
			<path d="M21.743 11.313c-0.201 0.735-0.489 1.424-0.823 2.222-0.62 1.48-1.39 3.321-1.858 6.286-0.193 1.224-0.891 2.305-1.914 2.967-0.642 0.415-1.364 0.631-2.068 0.631-0.292 0-0.583-0.036-0.862-0.112-1.004-0.274-1.799-1.010-2.24-2.076-0.399-0.964-0.473-2.123-0.206-3.264 0.479-2.044 0.336-3.689 0.198-5.279-0.12-1.382-0.233-2.687 0.124-4.001 0.448-1.642 1.342-3.068 2.519-4.015 1.258-1.012 2.689-1.369 4.030-1.004s2.393 1.398 2.964 2.907c0.535 1.412 0.583 3.094 0.135 4.737zM14.676 21.623c0.474 0.13 1.030 0.020 1.524-0.3 0.607-0.392 1.023-1.039 1.138-1.775 0.267-1.69 0.623-3.033 0.997-4.156l0.41-2.615c0.133-0.847-0.286-1.821-1.244-2.897-0.112-0.125-0.285-0.359-0.459-0.651-0.255 0.224-0.492 0.393-0.636 0.479-1.242 0.731-1.939 1.53-2.072 2.377-0.001 0.005-0.002 0.012-0.003 0.017l-0.481 2.708c-0.001 0.006-0.003 0.012-0.004 0.017 0.012 1.063-0.068 2.228-0.375 3.537-0.361 1.545 0.167 2.975 1.204 3.257zM19.975 7.193c-0.368-0.973-1.004-1.627-1.791-1.841-0.187-0.051-0.38-0.076-0.575-0.076-0.627 0-1.285 0.258-1.903 0.755-0.892 0.719-1.577 1.825-1.929 3.114-0.048 0.175-0.084 0.352-0.111 0.532 0.47-0.529 1.088-1.020 1.853-1.471 0.348-0.204 0.861-0.745 0.951-0.959 0.089-0.459 0.526-0.768 0.991-0.695 0.43 0.068 0.737 0.439 0.737 0.86 0 0.035-0.002 0.070-0.007 0.105 0.020 0.231 0.343 0.903 0.61 1.204 0.583 0.654 1.017 1.303 1.303 1.942 0.299-1.227 0.254-2.452-0.132-3.471zM9.635 10.518c-0.62 1.479-1.39 3.321-1.858 6.285-0.193 1.225-0.891 2.307-1.914 2.968-0.642 0.416-1.364 0.633-2.068 0.633-0.292 0-0.583-0.039-0.862-0.114-1.004-0.273-1.799-1.009-2.241-2.074-0.399-0.964-0.472-2.124-0.205-3.265 0.479-2.044 0.336-3.688 0.198-5.279-0.12-1.381-0.233-2.686 0.124-4.001 0.447-1.642 1.342-3.068 2.519-4.015 1.258-1.012 2.689-1.369 4.030-1.004s2.393 1.397 2.964 2.907c0.535 1.412 0.583 3.095 0.135 4.737-0.201 0.735-0.489 1.424-0.823 2.222zM3.391 18.607c0.474 0.129 1.030 0.019 1.524-0.3 0.607-0.393 1.023-1.041 1.138-1.775 0.267-1.69 0.623-3.033 0.997-4.156l0.41-2.614c0.133-0.847-0.286-1.822-1.244-2.897-0.112-0.126-0.285-0.359-0.459-0.651-0.255 0.224-0.492 0.394-0.636 0.479-1.242 0.73-1.939 1.53-2.072 2.377-0.001 0.005-0.002 0.011-0.003 0.017l-0.481 2.707c-0.001 0.007-0.003 0.011-0.004 0.017 0.012 1.063-0.068 2.228-0.375 3.537-0.361 1.545 0.167 2.976 1.204 3.259zM8.69 4.176c-0.368-0.973-1.004-1.627-1.791-1.841-0.187-0.050-0.38-0.076-0.575-0.076-0.627 0-1.285 0.258-1.903 0.756-0.892 0.718-1.577 1.824-1.928 3.114-0.048 0.175-0.084 0.352-0.111 0.532 0.471-0.529 1.089-1.020 1.854-1.471 0.348-0.204 0.861-0.745 0.95-0.959 0.089-0.459 0.527-0.768 0.992-0.695 0.43 0.068 0.737 0.438 0.737 0.86 0 0.035-0.002 0.070-0.007 0.105 0.020 0.231 0.343 0.903 0.61 1.204 0.583 0.654 1.017 1.302 1.303 1.942 0.298-1.227 0.254-2.453-0.132-3.471z"></path>
		</symbol>

		<symbol id="icon_planet" viewBox="0 0 24 24">
			<title>planet</title>
			<path d="M23.187 1.777c-0.791-0.915-2.554-1.664-6.539 0-3.692-1.457-8.023-0.833-11.161 1.846-3.151 2.678-4.428 6.825-3.595 10.682-0.055 0.042-0.097 0.098-0.139 0.167-2.276 3.677-1.818 5.549-1.041 6.465 0.444 0.513 1.208 0.985 2.527 0.985 0.93 0 2.137-0.237 3.692-0.86 0.098-0.042 0.194-0.084 0.292-0.125-0.028 0.333 0.139 0.652 0.458 0.819 1.568 0.776 3.248 1.165 4.914 1.165 2.554 0 5.081-0.888 7.121-2.622 3.596-3.066 4.817-8.060 3.054-12.443-0.056-0.125-0.125-0.222-0.208-0.306 1.819-3.218 1.347-4.911 0.625-5.771zM1.99 19.853c-0.472-0.555-0.236-1.858 0.583-3.454 0.236 0.527 0.514 1.041 0.833 1.541 0.167 0.25 0.43 0.374 0.694 0.374 0.153 0 0.32-0.042 0.458-0.139 0.388-0.25 0.499-0.763 0.236-1.151-2.54-3.898-1.791-9.114 1.763-12.139 3.346-2.857 8.288-2.969 11.759-0.264 0.361 0.278 0.888 0.223 1.165-0.138s0.222-0.888-0.139-1.166c-0.222-0.18-0.458-0.347-0.694-0.499 1.596-0.485 2.818-0.485 3.262 0.042 0.43 0.499 0.389 1.872-1.013 4.231-1.374 2.317-3.651 4.883-6.413 7.241-6.177 5.257-11.438 6.757-12.494 5.522zM18.634 19.034c-2.818 2.401-6.746 2.9-10.078 1.305 2.248-1.124 4.678-2.761 6.996-4.745 2.402-2.039 4.457-4.259 5.928-6.353 1.096 3.51 0 7.366-2.846 9.793z"></path>
		</symbol>

		<symbol id="icon_glasses" viewBox="0 0 24 24">
			<title>glasses</title>
			<path d="M21.096 3.215c-0.442 0-0.802 0.362-0.802 0.803s0.361 0.803 0.802 0.803c0.521 0 0.936 0.308 1.043 0.763-0.027 0.080-0.040 0.161-0.040 0.241v5.486c-0.963-0.95-2.287-1.539-3.744-1.539-1.953 0-3.651 1.043-4.588 2.609-0.482-0.455-1.123-0.736-1.832-0.736-0.708 0-1.35 0.281-1.832 0.736-0.937-1.553-2.648-2.609-4.587-2.609-1.525 0-2.903 0.642-3.879 1.672v-5.298c0.040-0.094 0.067-0.201 0.067-0.322 0-0.589 0.414-1.004 1.003-1.004 0.441 0 0.803-0.361 0.803-0.803s-0.361-0.803-0.803-0.803c-1.351 0-2.407 0.937-2.581 2.234-0.054 0.107-0.094 0.241-0.094 0.375v9.367c0 0.187 0.067 0.347 0.16 0.481 0.28 2.689 2.554 4.804 5.323 4.804 2.955 0 5.349-2.395 5.349-5.352 0-0.201-0.014-0.389-0.027-0.576 0.027-0.067 0.027-0.147 0.027-0.227 0-0.589 0.481-1.070 1.069-1.070s1.070 0.482 1.070 1.070c0 0.080 0.014 0.147 0.027 0.227-0.027 0.188-0.027 0.389-0.027 0.576 0 2.957 2.394 5.352 5.35 5.352 2.902 0 5.269-2.329 5.349-5.219 0-0.027 0-0.040 0-0.067v-9.045c0.040-0.094 0.067-0.201 0.067-0.322 0-1.458-1.177-2.609-2.675-2.609zM5.516 18.87c-2.060 0-3.745-1.685-3.745-3.745s1.685-3.748 3.745-3.748c2.060 0 3.744 1.687 3.744 3.748s-1.684 3.745-3.744 3.745zM18.355 18.87c-2.060 0-3.745-1.685-3.745-3.745s1.684-3.748 3.745-3.748c2.059 0 3.744 1.687 3.744 3.748s-1.684 3.745-3.744 3.745z"></path>
		</symbol>

		<symbol id="icon_graph" viewBox="0 0 24 24">
			<title>graph</title>
			<path d="M23.047 22.544h-21.876c-0.512 0-0.931-0.419-0.931-0.931v-19.394c0-0.511 0.418-0.93 0.931-0.93s0.931 0.419 0.931 0.93v18.464h20.945c0.512 0 0.931 0.419 0.931 0.93s-0.419 0.931-0.931 0.931zM11.24 7.495c-0.373-0.296-0.916-0.249-1.241 0.092l-5.849 6.16c-0.357 0.372-0.341 0.962 0.031 1.319 0.186 0.17 0.404 0.247 0.636 0.247 0.248 0 0.497-0.092 0.683-0.294l5.275-5.555 3.351 2.575c0.373 0.295 0.916 0.248 1.241-0.108l6.594-6.998v4.111c0 0.512 0.419 0.931 0.931 0.931s0.931-0.419 0.931-0.931v-6.361c0-0.511-0.418-0.93-0.931-0.93h-6.206c-0.511 0-0.931 0.418-0.931 0.93 0 0.513 0.419 0.931 0.931 0.931h3.957l-6.051 6.454-3.351-2.576z"></path>
		</symbol>

		<symbol id="icon_list" viewBox="0 0 23 24">
			<title>list</title>
			<path d="M17.985 12.739v-10.35h-15.448v19.311h7.106c0.51 0 0.927 0.417 0.927 0.927s-0.417 0.927-0.927 0.927h-8.033c-0.51 0-0.927-0.417-0.927-0.927v-21.165c0-0.509 0.417-0.927 0.927-0.927h17.301c0.51 0 0.927 0.417 0.927 0.927v11.277c0 0.511-0.417 0.927-0.927 0.927s-0.927-0.417-0.927-0.927zM22.759 14.995c-0.386-0.34-0.973-0.309-1.313 0.078l-5.082 5.654-2.549-2.456c-0.371-0.356-0.958-0.34-1.313 0.031s-0.34 0.958 0.031 1.313l3.244 3.12c0.17 0.17 0.402 0.263 0.649 0.263 0.015 0 0.015 0 0.031 0 0.247-0.015 0.495-0.124 0.649-0.308l5.716-6.364c0.356-0.402 0.324-0.989-0.062-1.329zM14.587 5.943h-8.342c-0.51 0-0.927 0.417-0.927 0.927s0.417 0.927 0.927 0.927h8.342c0.51 0 0.927-0.417 0.927-0.927s-0.417-0.927-0.927-0.927zM15.513 11.967c0-0.51-0.417-0.927-0.927-0.927h-8.342c-0.51 0-0.927 0.417-0.927 0.927s0.417 0.927 0.927 0.927h8.342c0.51 0 0.927-0.417 0.927-0.927zM6.245 15.984c-0.51 0-0.927 0.417-0.927 0.927 0 0.509 0.417 0.927 0.927 0.927h2.471c0.51 0 0.927-0.417 0.927-0.927 0-0.511-0.417-0.927-0.927-0.927h-2.471z"></path>
		</symbol>

		<symbol id="icon_sun" viewBox="0 0 24 24">
			<title>sun</title>
			<path d="M11.953 3.895c-0.425 0-0.772-0.347-0.772-0.772v-1.929c0-0.423 0.347-0.771 0.772-0.771s0.771 0.348 0.771 0.771v1.929c0 0.425-0.347 0.772-0.771 0.772zM11.182 20.74v1.929c0 0.424 0.347 0.771 0.772 0.771s0.771-0.347 0.771-0.771v-1.929c0-0.425-0.347-0.772-0.771-0.772s-0.772 0.347-0.772 0.772zM23.527 12.124c0-0.424-0.347-0.772-0.772-0.772h-1.929c-0.425 0-0.772 0.348-0.772 0.772s0.347 0.772 0.772 0.772h1.929c0.425 0 0.772-0.348 0.772-0.772zM1.28 12.896h1.929c0.424 0 0.772-0.348 0.772-0.772s-0.348-0.772-0.772-0.772h-1.929c-0.425 0-0.772 0.348-0.772 0.772s0.347 0.772 0.772 0.772zM20.196 3.843c-0.296-0.295-0.785-0.295-1.093 0l-1.364 1.363c-0.295 0.296-0.295 0.785 0 1.093 0.155 0.154 0.348 0.232 0.54 0.232s0.399-0.078 0.54-0.232l1.363-1.363c0.321-0.308 0.321-0.797 0.013-1.093zM3.929 20.11c0.154 0.154 0.347 0.232 0.54 0.232s0.399-0.078 0.54-0.232l1.363-1.363c0.296-0.295 0.296-0.785 0-1.093-0.295-0.295-0.784-0.295-1.092 0l-1.364 1.363c-0.295 0.309-0.295 0.798 0.013 1.093zM17.65 17.654c-0.296 0.296-0.296 0.785 0 1.093l1.363 1.363c0.154 0.154 0.347 0.232 0.54 0.232s0.399-0.078 0.54-0.232c0.296-0.295 0.296-0.784 0-1.093l-1.351-1.363c-0.295-0.295-0.784-0.295-1.092 0zM3.839 4.936l1.364 1.363c0.154 0.154 0.347 0.232 0.54 0.232s0.399-0.078 0.54-0.232c0.295-0.295 0.295-0.784 0-1.093l-1.364-1.363c-0.295-0.295-0.784-0.295-1.092 0-0.296 0.296-0.296 0.785 0.012 1.093zM12.081 17.191c-2.932 0-5.324-2.393-5.324-5.324s2.392-5.323 5.324-5.323c2.932 0 5.324 2.391 5.324 5.323s-2.392 5.324-5.324 5.324zM15.863 11.867c0-2.083-1.697-3.78-3.781-3.78s-3.78 1.697-3.78 3.78c0 2.084 1.697 3.781 3.78 3.781s3.781-1.697 3.781-3.781z"></path>
		</symbol>

		<symbol id="icon_gift" viewBox="0 0 24 24">
			<title>gift</title>
			<path d="M2.295 14.099h0.89v8.368c0 0.466 0.339 0.804 0.805 0.804h16.185c0.466 0 0.805-0.338 0.805-0.804v-8.368h0.89c0.466 0 0.805-0.325 0.805-0.805v-5.843c0-0.465-0.339-0.832-0.805-0.832h-3.982c1.864-0.988 2.81-1.891 2.952-2.936 0.084-0.635-0.113-1.552-1.483-2.385-1.455-0.875-2.655-0.691-3.418-0.381-1.243 0.508-2.344 1.75-3.248 3.698-0.142 0.297-0.255 0.579-0.368 0.847-0.113-0.268-0.226-0.55-0.367-0.847-0.918-1.948-2.005-3.19-3.249-3.698-0.763-0.31-1.963-0.494-3.417 0.381-1.384 0.833-1.568 1.765-1.483 2.399 0.127 1.030 1.073 1.934 2.937 2.922h-4.449c-0.466 0-0.805 0.367-0.805 0.832v5.843c0 0.48 0.339 0.805 0.805 0.805zM4.879 14.099h6.356v7.479h-6.356v-7.479zM19.285 21.578h-6.355v-7.479h6.355v7.479zM20.98 12.405h-8.050v-4.093h8.050v4.093zM14.229 5.32c0.706-1.524 1.525-2.512 2.358-2.851 0.212-0.084 0.424-0.127 0.65-0.127 0.396 0 0.805 0.127 1.243 0.395s0.706 0.55 0.692 0.72c-0.099 0.762-2.57 2.117-5.423 3.005 0.127-0.338 0.283-0.734 0.48-1.143zM5.473 3.457c-0.029-0.17 0.24-0.451 0.692-0.72 0.437-0.267 0.847-0.394 1.243-0.394 0.226 0 0.437 0.043 0.65 0.127 1.314 0.536 2.302 2.526 2.853 3.993-2.867-0.889-5.339-2.244-5.437-3.006zM3.184 8.312h8.051v4.093h-8.051v-4.093z"></path>
		</symbol>

		<symbol id="icon_drink" viewBox="0 0 24 24">
			<title>drink</title>
			<path d="M22.177 19.090l-4.895 1.631c-0.069 0.022-0.139 0.034-0.207 0.034-0.276 0-0.532-0.176-0.623-0.452-0.115-0.344 0.072-0.716 0.417-0.831l1.822-0.607-1.145-3.451c-0.293 0.056-0.59 0.091-0.89 0.091-2.086 0-3.93-1.333-4.589-3.317l-0.35-1.425-0.533 4.003c-0.486 2.268-2.472 3.875-4.73 3.875-0.125 0-0.252-0.011-0.377-0.020l-0.767 3.549 1.88 0.407c0.355 0.077 0.58 0.427 0.504 0.782-0.067 0.309-0.339 0.519-0.641 0.519-0.046 0-0.093-0.004-0.14-0.015l-2.515-0.544c-0.002-0.001-0.006 0-0.009-0.001s-0.002-0.002-0.005-0.002l-2.514-0.543c-0.355-0.077-0.581-0.427-0.504-0.783s0.427-0.576 0.781-0.505l1.878 0.406 0.77-3.564c-0.988-0.358-1.836-1.009-2.415-1.909-0.701-1.089-0.936-2.385-0.663-3.65l2.248-7.287 6.819 1.476-0.533-2.172 7.979-2.66 3 6.948c0.429 1.283 0.334 2.597-0.245 3.754-0.478 0.958-1.252 1.697-2.196 2.161l1.149 3.46 1.826-0.609c0.343-0.117 0.715 0.074 0.831 0.419 0.115 0.344-0.072 0.716-0.417 0.831zM4.863 7.023l-1.878 6.079c-0.184 0.867-0.012 1.812 0.497 2.604s1.298 1.339 2.218 1.538h0.001c1.876 0.406 3.789-0.842 4.189-2.703l0.83-6.249-5.857-1.268zM19.81 12.239c0.42-0.843 0.49-1.801 0.192-2.697l-2.501-5.786-5.686 1.895 1.513 6.173c0.465 1.395 1.809 2.365 3.327 2.365 0.377 0 0.753-0.061 1.114-0.182 0.894-0.297 1.619-0.926 2.041-1.769zM14.101 11.59l-0.884-4.025c1.37-0.95 1.192 2.392 3.652 1.572 1.689-0.562 2.277 0.496 2.404 0.777 0.443 1.413-0.324 2.931-1.733 3.402-1.421 0.474-2.964-0.3-3.438-1.726zM5.854 16.531c-1.451-0.314-2.377-1.74-2.087-3.195 0.092-0.294 0.567-1.408 2.306-1.030 2.532 0.547 1.995-2.756 3.461-1.959l-0.446 4.099c-0.317 1.469-1.767 2.405-3.233 2.086zM10.826 3.321c-0.411 0.022-0.762-0.293-0.783-0.705-0.022-0.41 0.293-0.761 0.703-0.783 0.409-0.022 0.759 0.293 0.782 0.703s-0.293 0.762-0.701 0.784zM8.321 4.649c-0.409 0.022-0.759-0.293-0.782-0.703s0.293-0.762 0.701-0.784c0.41-0.022 0.761 0.293 0.783 0.703 0.022 0.412-0.293 0.762-0.703 0.784zM7.953 2.021c-0.41 0.022-0.761-0.293-0.783-0.703s0.292-0.762 0.703-0.784c0.409-0.022 0.759 0.293 0.782 0.704s-0.293 0.761-0.701 0.783z"></path>
		</symbol>

		<symbol id="icon_google" viewBox="0 0 32 32">
			<title>google</title>
			<path d="M10.181 14.294v3.494h5.775c-0.231 1.5-1.744 4.394-5.775 4.394-3.475 0-6.313-2.881-6.313-6.431s2.838-6.431 6.313-6.431c1.981 0 3.3 0.844 4.056 1.569l2.762-2.662c-1.775-1.656-4.075-2.662-6.819-2.662-5.631 0.006-10.181 4.556-10.181 10.188s4.55 10.181 10.181 10.181c5.875 0 9.775-4.131 9.775-9.95 0-0.669-0.075-1.181-0.163-1.688h-9.613z"></path>
			<path d="M32 14h-3v-3h-3v3h-3v3h3v3h3v-3h3z"></path>
		</symbol>

		<symbol id="icon_linkedin" viewBox="0 0 32 32">
			<title>linkedin</title>
			<path d="M12 12h5.535v2.837h0.079c0.77-1.381 2.655-2.837 5.464-2.837 5.842 0 6.922 3.637 6.922 8.367v9.633h-5.769v-8.54c0-2.037-0.042-4.657-3.001-4.657-3.005 0-3.463 2.218-3.463 4.509v8.688h-5.767v-18z"></path>
			<path d="M2 12h6v18h-6v-18z"></path>
			<path d="M8 7c0 1.657-1.343 3-3 3s-3-1.343-3-3c0-1.657 1.343-3 3-3s3 1.343 3 3z"></path>
		</symbol>

		<symbol id="icon_island" viewBox="0 0 22 24">
			<title>island</title>
			<path  d="M20.877 8.526h-1.577c-0.395 0-0.715-0.32-0.715-0.714s0.32-0.715 0.715-0.715h1.577c0.394 0 0.714 0.32 0.714 0.715s-0.32 0.714-0.714 0.714zM18.214 4.478c-0.14 0.14-0.322 0.209-0.506 0.209s-0.366-0.069-0.505-0.209c-0.279-0.279-0.28-0.731-0.001-1.011l1.115-1.114c0.279-0.279 0.731-0.279 1.011 0s0.279 0.731 0 1.011l-1.114 1.114zM13.869 11.165c-1.849 0-3.352-1.504-3.352-3.353s1.504-3.353 3.352-3.353 3.353 1.505 3.353 3.353c0 1.849-1.504 3.353-3.353 3.353zM13.869 5.889c-1.060 0-1.923 0.862-1.923 1.923s0.863 1.923 1.923 1.923c1.061 0 1.923-0.861 1.923-1.923s-0.862-1.923-1.923-1.923zM13.869 3.096c-0.394 0-0.715-0.32-0.715-0.715v-1.576c0-0.395 0.32-0.715 0.715-0.715s0.715 0.32 0.715 0.715v1.576c0 0.395-0.32 0.715-0.715 0.715zM10.029 4.687c-0.183 0-0.366-0.070-0.506-0.21l-1.115-1.114c-0.279-0.279-0.279-0.731 0-1.011s0.731-0.279 1.011 0l1.115 1.114c0.279 0.28 0.279 0.732 0 1.011-0.139 0.14-0.322 0.21-0.505 0.21zM9.153 7.812c0 0.394-0.32 0.714-0.715 0.714h-1.576c-0.395 0-0.715-0.32-0.715-0.714s0.32-0.715 0.715-0.715h1.576c0.395 0 0.715 0.32 0.715 0.715zM13.155 14.819v-1.577c0-0.394 0.32-0.714 0.715-0.714s0.715 0.32 0.715 0.714v1.577c0 0.394-0.32 0.715-0.715 0.715s-0.715-0.32-0.715-0.715zM18.319 13.273l-1.114-1.115c-0.279-0.279-0.279-0.731-0.001-1.011s0.732-0.279 1.011 0l1.115 1.115c0.279 0.279 0.279 0.731 0 1.011-0.139 0.139-0.322 0.209-0.505 0.209s-0.366-0.070-0.506-0.209zM7.665 11.771c1.012 0.137 2.513 0.668 3.918 2.419 0.247 0.308 0.198 0.758-0.11 1.004-0.132 0.106-0.29 0.157-0.447 0.157-0.209 0-0.417-0.092-0.558-0.267-0.983-1.225-1.985-1.701-2.773-1.862 0.838 1.071 1.671 2.677 0.978 4.331-0.115 0.274-0.38 0.439-0.659 0.439-0.092 0-0.185-0.018-0.275-0.055-0.364-0.153-0.536-0.571-0.383-0.935 0.527-1.26-0.505-2.645-1.216-3.399-0.304 0.529-0.714 1.325-1.059 2.286-0.803 2.239-0.904 4.303-0.302 6.14 0.374 0.11 0.815 0.181 1.444 0.181 1.121 0 1.647-0.227 2.255-0.491 0.658-0.285 1.405-0.608 2.823-0.608s2.164 0.323 2.823 0.608c0.608 0.263 1.134 0.491 2.255 0.491s1.647-0.227 2.255-0.491c0.518-0.224 1.091-0.411 2-0.529 0.266-0.034 0.747 0.098 0.74 0.609-0.008 0.692-0.678 0.793-0.632 0.787-0.664 0.079-1.078 0.243-1.541 0.443-0.658 0.285-1.405 0.609-2.823 0.609s-2.164-0.323-2.823-0.609c-0.608-0.263-1.134-0.491-2.255-0.491s-1.647 0.228-2.255 0.491c-0.658 0.285-1.405 0.609-2.823 0.609s-2.164-0.323-2.823-0.608c-0.608-0.263-1.134-0.491-2.255-0.491-0.394 0-0.714-0.32-0.714-0.714s0.32-0.715 0.714-0.715c0.876 0 1.496 0.123 1.997 0.285-0.359-1.863-0.155-3.921 0.608-6.030 0.4-1.103 0.87-2.001 1.21-2.579-0.808-0.294-2.216-0.561-3.486 0.436-0.13 0.103-0.286 0.153-0.441 0.153-0.212 0-0.422-0.094-0.562-0.273-0.244-0.31-0.19-0.76 0.121-1.003 1.111-0.873 2.468-1.188 3.924-0.909 0.155 0.031 0.304 0.065 0.445 0.104-0.035-0.072-0.075-0.145-0.118-0.217-0.564-0.937-1.577-1.496-3.011-1.664-0.392-0.045-0.673-0.401-0.628-0.792 0.046-0.393 0.4-0.673 0.793-0.628 2.411 0.28 3.569 1.472 4.116 2.422 0.28 0.488 0.43 0.957 0.51 1.326 0.295-0.023 0.647-0.023 1.043 0.030z"></path>
		</symbol>

		<symbol id="icon_flag" viewBox="0 0 20 24">
			<title>flag</title>
			<path  d="M17.59 8.131l2.509 3.543c0.148 0.148 0.148 0.442 0.147 0.59s-0.147 0.296-0.295 0.443c0 0-2.362 1.287-5.166 1.328-2.479 0.036-3.713-0.831-4.253-1.328 0 0-1.022-1.193-3.166-1.181-1.919 0.011-3.047 0.738-3.785 1.034v7.232h1.033c0.443 0 0.738 0.295 0.738 0.737s-0.295 0.738-0.738 0.738h-3.69c-0.443 0-0.738-0.295-0.738-0.738s0.295-0.737 0.738-0.737h1.181v-17.416c0-0.148 0.148-0.442 0.295-0.59 0 0 2.014-1.388 4.818-1.328 2.096 0.045 2.942 0.523 3.905 1.328 0 0 1.005 1.18 3.514 1.18s4.428-1.18 4.428-1.18c0.295-0.148 0.59 0 0.885 0.148 0.148 0.295 0.295 0.59 0.148 0.885l-2.509 5.313zM14.638 4.442c-2.804 0-3.995-1.149-4.252-1.328 0 0-1.588-1.217-3.167-1.181-1.918 0.044-2.829 0.738-3.567 1.033v7.97c1.033-0.443 1.943-0.886 3.567-0.886 2.804 0 3.058 0.645 3.905 1.329 0 0 1.005 1.181 3.514 1.181 1.624 0 2.952-0.443 3.543-0.738l-2.214-3.247c-0.148-0.147-0.148-0.443 0-0.738l1.919-3.985c-0.886 0.295-1.919 0.591-3.247 0.591zM0.938 22.508h8.708c0.443 0 0.738 0.295 0.738 0.738 0 0.442-0.443 0.738-0.738 0.738h-8.708c-0.442 0-0.738-0.295-0.738-0.738 0-0.443 0.295-0.738 0.738-0.738z"></path>
		</symbol>

		<symbol id="icon_microphone" viewBox="0 0 16 24">
			<title>microphone</title>
			<path  d="M15.452 14.612c-0.405 0.957-0.984 1.817-1.721 2.554s-1.597 1.317-2.553 1.722c-0.726 0.307-1.485 0.503-2.265 0.586v2.737h1.963c0.476 0 0.862 0.386 0.862 0.862s-0.386 0.862-0.862 0.862h-5.649c-0.476 0-0.862-0.386-0.862-0.862s0.386-0.862 0.862-0.862h1.963v-2.737c-0.78-0.083-1.539-0.279-2.265-0.586-0.957-0.405-1.816-0.985-2.553-1.722s-1.316-1.597-1.721-2.554c-0.419-0.991-0.631-2.044-0.631-3.128v-0.517c0-0.476 0.386-0.863 0.862-0.863s0.862 0.387 0.862 0.863v0.517c0 1.686 0.656 3.271 1.847 4.464 1.192 1.192 2.776 1.849 4.461 1.849s3.27-0.657 4.461-1.849c1.192-1.193 1.848-2.778 1.848-4.464v-0.517c0-0.476 0.386-0.863 0.861-0.863s0.862 0.387 0.862 0.863v0.517c0 1.085-0.212 2.137-0.631 3.128zM11.344 14.956c-0.393 0.393-0.851 0.702-1.361 0.918-0.53 0.224-1.091 0.338-1.669 0.338h-0.528c-0.578 0-1.139-0.113-1.669-0.338-0.51-0.216-0.968-0.524-1.361-0.918s-0.702-0.851-0.917-1.362c-0.224-0.53-0.338-1.091-0.338-1.669v-7.377c0-0.578 0.113-1.139 0.338-1.669 0.215-0.511 0.524-0.969 0.917-1.362s0.851-0.702 1.361-0.918c0.53-0.224 1.091-0.338 1.669-0.338h0.528c0.578 0 1.139 0.114 1.669 0.338 0.51 0.215 0.968 0.525 1.361 0.918s0.702 0.851 0.917 1.362c0.224 0.53 0.338 1.091 0.338 1.669v7.377c0 0.578-0.113 1.139-0.338 1.669-0.215 0.511-0.524 0.969-0.917 1.362zM10.875 4.547c0-1.414-1.146-2.562-2.561-2.562h-0.528c-1.414 0-2.561 1.147-2.561 2.562v7.377c0 1.415 1.146 2.562 2.561 2.562h0.528c1.414 0 2.561-1.147 2.561-2.562v-7.377z"></path>
		</symbol>

		<symbol id="icon_book" viewBox="0 0 20 24">
			<title>book</title>
			<path  d="M18.686 0.492h-15.391c-1.799 0.001-3.263 1.465-3.263 3.263v16.505c0 1.799 1.463 3.263 3.263 3.263h15.391c0.405 0 0.733-0.328 0.733-0.733v-21.566c0-0.404-0.328-0.733-0.733-0.733zM7.023 1.959v3.724l-0.235-0.236c-0.137-0.137-0.324-0.214-0.518-0.214s-0.381 0.077-0.519 0.214l-0.235 0.235v-3.724h1.508zM3.296 1.959h0.754v5.493c0 0.405 0.328 0.734 0.734 0.734 0.195 0 0.381-0.078 0.518-0.215l0.968-0.969 0.968 0.969c0.137 0.137 0.324 0.215 0.519 0.215v0c0.405 0 0.733-0.329 0.733-0.734v-5.493h9.464v15.038h-14.658c-0.663 0.001-1.281 0.2-1.797 0.542v-13.783c0-0.99 0.806-1.797 1.797-1.797zM3.296 22.058c-0.991-0.001-1.797-0.806-1.797-1.797s0.806-1.796 1.797-1.797h14.658v1.064h-14.658c-0.405 0-0.733 0.328-0.733 0.733s0.328 0.733 0.733 0.733h14.658v1.064h-14.658z"></path>
		</symbol>

		<symbol id="icon_calendar" viewBox="0 0 23 24">
			<title>calendar</title>
			<path d="M17.904 20.961h-12.117c-1.183 0-2.146-0.937-2.146-2.089v-11.799c0-1.151 0.963-2.089 2.146-2.089h0.707v-0.589c0-0.746 0.604-1.352 1.348-1.352s1.348 0.606 1.348 1.352v0.589h1.384v-0.589c0-0.746 0.604-1.352 1.348-1.352s1.348 0.606 1.348 1.352v0.589h1.384v-0.589c0-0.746 0.604-1.352 1.348-1.352s1.348 0.606 1.348 1.352v0.589h0.554c1.184 0 2.146 0.937 2.146 2.088v11.799c0 1.151-0.962 2.089-2.146 2.089zM8.434 4.395c0-0.339-0.266-0.614-0.591-0.614s-0.591 0.275-0.591 0.614v2.407c0 0.338 0.265 0.614 0.591 0.614s0.591-0.276 0.591-0.614v-2.407zM12.513 4.395c0-0.339-0.265-0.614-0.591-0.614s-0.59 0.275-0.59 0.614v2.407c0 0.338 0.265 0.614 0.59 0.614s0.591-0.276 0.591-0.614v-2.407zM16.592 4.395c0-0.339-0.265-0.614-0.59-0.614s-0.591 0.275-0.591 0.614v2.407c0 0.338 0.265 0.614 0.591 0.614s0.59-0.276 0.59-0.614v-2.407zM18.787 8.057h-13.884v10.816c0 0.474 0.396 0.86 0.883 0.86h12.117c0.487 0 0.883-0.386 0.883-0.86v-10.816zM15.357 15.649h2.32v2.009h-2.32v-2.009zM15.357 12.967h2.32v2.007h-2.32v-2.007zM15.357 10.283h2.32v2.010h-2.32v-2.010zM12.26 15.649h2.319v2.009h-2.319v-2.009zM12.26 12.967h2.319v2.007h-2.319v-2.007zM12.26 10.283h2.319v2.010h-2.319v-2.010zM9.161 15.649h2.321v2.009h-2.321v-2.009zM9.161 12.967h2.321v2.007h-2.321v-2.007zM9.161 10.283h2.321v2.010h-2.321v-2.010zM6.064 15.649h2.32v2.009h-2.32v-2.009zM6.064 12.967h2.32v2.007h-2.32v-2.007zM6.064 10.283h2.32v2.010h-2.32v-2.010z"></path>
		</symbol>

		<symbol id="icon_burger" viewBox="0 0 24 24">
			<title>burger</title>
			<path d="M3 6h18v2.016h-18v-2.016zM3 12.984v-1.969h18v1.969h-18zM3 18v-2.016h18v2.016h-18z"></path>
		</symbol>

		<symbol id="icon_instagram" viewBox="0 0 32 32">
			<title>instagram</title>
			<path d="M16 2.881c4.275 0 4.781 0.019 6.462 0.094 1.563 0.069 2.406 0.331 2.969 0.55 0.744 0.288 1.281 0.638 1.837 1.194 0.563 0.563 0.906 1.094 1.2 1.838 0.219 0.563 0.481 1.412 0.55 2.969 0.075 1.688 0.094 2.194 0.094 6.463s-0.019 4.781-0.094 6.463c-0.069 1.563-0.331 2.406-0.55 2.969-0.288 0.744-0.637 1.281-1.194 1.837-0.563 0.563-1.094 0.906-1.837 1.2-0.563 0.219-1.413 0.481-2.969 0.55-1.688 0.075-2.194 0.094-6.463 0.094s-4.781-0.019-6.463-0.094c-1.563-0.069-2.406-0.331-2.969-0.55-0.744-0.288-1.281-0.637-1.838-1.194-0.563-0.563-0.906-1.094-1.2-1.837-0.219-0.563-0.481-1.413-0.55-2.969-0.075-1.688-0.094-2.194-0.094-6.463s0.019-4.781 0.094-6.463c0.069-1.563 0.331-2.406 0.55-2.969 0.288-0.744 0.638-1.281 1.194-1.838 0.563-0.563 1.094-0.906 1.838-1.2 0.563-0.219 1.412-0.481 2.969-0.55 1.681-0.075 2.188-0.094 6.463-0.094zM16 0c-4.344 0-4.887 0.019-6.594 0.094-1.7 0.075-2.869 0.35-3.881 0.744-1.056 0.412-1.95 0.956-2.837 1.85-0.894 0.888-1.438 1.781-1.85 2.831-0.394 1.019-0.669 2.181-0.744 3.881-0.075 1.713-0.094 2.256-0.094 6.6s0.019 4.887 0.094 6.594c0.075 1.7 0.35 2.869 0.744 3.881 0.413 1.056 0.956 1.95 1.85 2.837 0.887 0.887 1.781 1.438 2.831 1.844 1.019 0.394 2.181 0.669 3.881 0.744 1.706 0.075 2.25 0.094 6.594 0.094s4.888-0.019 6.594-0.094c1.7-0.075 2.869-0.35 3.881-0.744 1.050-0.406 1.944-0.956 2.831-1.844s1.438-1.781 1.844-2.831c0.394-1.019 0.669-2.181 0.744-3.881 0.075-1.706 0.094-2.25 0.094-6.594s-0.019-4.887-0.094-6.594c-0.075-1.7-0.35-2.869-0.744-3.881-0.394-1.063-0.938-1.956-1.831-2.844-0.887-0.887-1.781-1.438-2.831-1.844-1.019-0.394-2.181-0.669-3.881-0.744-1.712-0.081-2.256-0.1-6.6-0.1v0z"></path>
			<path d="M16 7.781c-4.537 0-8.219 3.681-8.219 8.219s3.681 8.219 8.219 8.219 8.219-3.681 8.219-8.219c0-4.537-3.681-8.219-8.219-8.219zM16 21.331c-2.944 0-5.331-2.387-5.331-5.331s2.387-5.331 5.331-5.331c2.944 0 5.331 2.387 5.331 5.331s-2.387 5.331-5.331 5.331z"></path>
			<path d="M26.462 7.456c0 1.060-0.859 1.919-1.919 1.919s-1.919-0.859-1.919-1.919c0-1.060 0.859-1.919 1.919-1.919s1.919 0.859 1.919 1.919z"></path>
		</symbol>

		<symbol id="icon_facebook" viewBox="0 0 32 32">
			<title>facebook</title>
			<path d="M19 6h5v-6h-5c-3.86 0-7 3.14-7 7v3h-4v6h4v16h6v-16h5l1-6h-6v-3c0-0.542 0.458-1 1-1z"></path>
		</symbol>

		<symbol id="icon_twitter" viewBox="0 0 32 32">
			<title>twitter</title>
			<path d="M32 7.075c-1.175 0.525-2.444 0.875-3.769 1.031 1.356-0.813 2.394-2.1 2.887-3.631-1.269 0.75-2.675 1.3-4.169 1.594-1.2-1.275-2.906-2.069-4.794-2.069-3.625 0-6.563 2.938-6.563 6.563 0 0.512 0.056 1.012 0.169 1.494-5.456-0.275-10.294-2.888-13.531-6.862-0.563 0.969-0.887 2.1-0.887 3.3 0 2.275 1.156 4.287 2.919 5.463-1.075-0.031-2.087-0.331-2.975-0.819 0 0.025 0 0.056 0 0.081 0 3.181 2.263 5.838 5.269 6.437-0.55 0.15-1.131 0.231-1.731 0.231-0.425 0-0.831-0.044-1.237-0.119 0.838 2.606 3.263 4.506 6.131 4.563-2.25 1.762-5.075 2.813-8.156 2.813-0.531 0-1.050-0.031-1.569-0.094 2.913 1.869 6.362 2.95 10.069 2.95 12.075 0 18.681-10.006 18.681-18.681 0-0.287-0.006-0.569-0.019-0.85 1.281-0.919 2.394-2.075 3.275-3.394z"></path>
		</symbol>

		<symbol id="icon_youtube" viewBox="0 0 32 32">
			<title>youtube</title>
			<path d="M31.681 9.6c0 0-0.313-2.206-1.275-3.175-1.219-1.275-2.581-1.281-3.206-1.356-4.475-0.325-11.194-0.325-11.194-0.325h-0.012c0 0-6.719 0-11.194 0.325-0.625 0.075-1.987 0.081-3.206 1.356-0.963 0.969-1.269 3.175-1.269 3.175s-0.319 2.588-0.319 5.181v2.425c0 2.587 0.319 5.181 0.319 5.181s0.313 2.206 1.269 3.175c1.219 1.275 2.819 1.231 3.531 1.369 2.563 0.244 10.881 0.319 10.881 0.319s6.725-0.012 11.2-0.331c0.625-0.075 1.988-0.081 3.206-1.356 0.962-0.969 1.275-3.175 1.275-3.175s0.319-2.587 0.319-5.181v-2.425c-0.006-2.588-0.325-5.181-0.325-5.181zM12.694 20.15v-8.994l8.644 4.513-8.644 4.481z"></path>
		</symbol>

	</defs>
</svg>
